<svg width="1253" height="301" viewBox="0 0 1253 301" fill="none" xmlns="http://www.w3.org/2000/svg">
<rect width="300.061" height="300.061" rx="75.0942" fill="url(#paint0_linear_2140_472)"/>
<path d="M183.724 65.5088C176.964 63.6557 169.932 62.6931 162.801 62.6931H123.204C102.2 62.6931 82.0569 71.0421 67.2051 85.9034C52.3534 100.765 44.0098 120.921 44.0098 141.938C44.0098 206.324 113.304 236.041 162.801 255.852V221.183C183.804 221.183 203.948 212.834 218.799 197.972C233.651 183.111 241.995 162.955 241.995 141.938C241.995 131.577 239.967 121.426 236.132 112.015L229.878 129.21C228.31 133.514 225.483 136.618 222.098 138.522C222.163 139.656 222.196 140.795 222.196 141.938C222.196 157.701 215.938 172.818 204.8 183.964C193.661 195.11 178.553 201.371 162.801 201.371H143.002V225.937C88.1802 201.034 63.8082 177.697 63.8082 141.938C63.8082 126.175 70.066 111.058 81.2048 99.912C92.3436 88.766 107.451 82.5042 123.204 82.5042H159.783C161.048 77.1977 164.741 72.4178 170.863 70.1876L183.724 65.5088Z" fill="white"/>
<path d="M219.452 124.081C216.607 115.045 211.618 106.735 204.8 99.912C195.837 90.9439 184.306 85.1376 171.936 83.2111C172.597 82.2738 173.557 81.501 174.816 81.0423L198.906 72.2786L199.173 71.5453C206.35 75.2581 212.981 80.0808 218.799 85.9034C223.172 90.2789 226.98 95.1134 230.178 100.294L227.787 101.163L219.452 124.081Z" fill="white"/>
<path fill-rule="evenodd" clip-rule="evenodd" d="M219.024 48.1855C217.093 42.8835 209.6 42.8835 207.669 48.1855L198.906 72.2786L174.816 81.0423C169.515 82.9736 169.515 90.4682 174.816 92.3995L198.906 101.163L207.669 125.256C209.6 130.558 217.093 130.558 219.024 125.256L227.787 101.163L251.877 92.3995C257.178 90.4682 257.178 82.9737 251.877 81.0423L227.787 72.2785L219.024 48.1855Z" fill="white"/>
<path d="M437.392 51.0107C438.786 51.0107 439.901 52.1257 439.901 53.2406V242.501C439.901 243.616 438.786 244.731 437.392 244.731H393.91C392.516 244.731 391.68 243.616 391.68 242.501V53.2406C391.68 52.1257 392.516 51.0107 393.91 51.0107H437.392Z" fill="#333333"/>
<path d="M500.491 97.2807C501.606 97.2807 502.721 98.3956 502.721 99.7893V242.501C502.721 243.616 501.606 244.731 500.491 244.731H459.238C457.844 244.731 457.008 243.616 457.008 242.501V99.7893C457.008 98.3956 457.844 97.2807 459.238 97.2807H500.491ZM500.491 51.0107C501.606 51.0107 502.721 52.1257 502.721 53.2406V83.3439C502.721 84.7376 501.606 85.8525 500.491 85.8525H459.238C457.844 85.8525 457.008 84.7376 457.008 83.3439V53.2406C457.008 52.1257 457.844 51.0107 459.238 51.0107H500.491Z" fill="#333333"/>
<path d="M656.636 209.332C657.751 210.168 658.03 211.562 657.473 212.677C656.079 214.628 654.406 217.136 653.57 218.251C652.177 220.203 650.504 222.154 648.832 223.826C648.832 223.826 648.832 223.826 648.832 224.105C648.274 224.662 647.159 225.777 646.323 226.613C646.323 226.613 646.044 226.613 646.044 226.892C645.208 227.45 644.651 228.286 643.815 228.843C643.536 229.122 642.978 229.68 642.7 229.958C642.421 230.237 642.142 230.516 641.863 230.794C630.435 240.271 616.499 246.404 601.726 248.633C601.168 248.633 600.611 248.633 600.053 248.633C599.496 248.912 598.938 248.912 598.381 248.912C597.266 248.912 596.43 249.191 595.315 249.191C595.036 249.191 594.757 249.191 594.479 249.191C593.364 249.191 591.97 249.191 590.855 249.191C547.651 249.191 512.809 214.628 512.809 172.26C512.809 129.614 547.651 95.0508 590.855 95.0508C591.97 95.0508 593.364 95.0508 594.479 95.0508C594.757 95.0508 595.036 95.0508 595.315 95.0508C596.43 95.3295 597.266 95.3295 598.381 95.3295C598.938 95.3295 599.496 95.6083 600.053 95.6083C600.611 95.6083 601.168 95.6083 601.726 95.6083C616.499 97.8381 630.435 103.97 641.863 113.447C642.142 113.726 642.421 114.005 642.7 114.283C642.978 114.841 643.536 115.12 643.815 115.398C644.651 116.235 645.208 116.792 646.044 117.35C646.044 117.628 646.323 117.628 646.323 117.907C647.159 118.464 647.996 119.301 648.553 120.137C648.832 120.137 648.832 120.416 648.832 120.416C650.504 122.367 652.177 124.039 653.57 125.99C654.964 127.941 656.358 129.893 657.751 132.122C658.309 132.959 658.03 134.074 657.194 134.631L636.289 146.617L624.024 153.585C623.188 154.142 621.795 153.864 620.958 153.028C614.269 142.436 604.513 136.861 593.364 136.861C582.214 136.861 572.459 141.599 565.769 149.404C560.194 155.536 556.849 163.341 556.849 172.26C556.849 180.901 560.194 188.984 565.769 194.838C572.459 202.642 582.214 207.659 593.364 207.659C604.513 207.659 614.269 201.806 620.958 191.493C621.795 190.378 623.188 190.099 624.024 190.657L656.636 209.332Z" fill="#333333"/>
<path d="M713.08 97.2807C714.195 97.2807 715.31 98.3956 715.31 99.7893V242.501C715.31 243.616 714.195 244.731 713.08 244.731H671.827C670.434 244.731 669.598 243.616 669.598 242.501V99.7893C669.598 98.3956 670.434 97.2807 671.827 97.2807H713.08ZM713.08 51.0107C714.195 51.0107 715.31 52.1257 715.31 53.2406V83.3439C715.31 84.7376 714.195 85.8525 713.08 85.8525H671.827C670.434 85.8525 669.598 84.7376 669.598 83.3439V53.2406C669.598 52.1257 670.434 51.0107 671.827 51.0107H713.08Z" fill="#333333"/>
<path d="M816.44 206.545C817.834 206.545 818.949 207.659 818.67 209.053L813.374 243.895C813.374 245.01 812.538 245.846 811.423 246.125C806.127 246.404 792.748 246.961 788.567 246.961C788.288 246.961 788.01 246.961 787.731 246.961C762.923 245.846 749.544 233.024 749.544 209.889V139.091C749.544 137.976 748.429 136.861 747.314 136.861H731.984C730.59 136.861 729.754 135.746 729.754 134.352V99.5105C729.754 98.3956 730.59 97.2807 731.984 97.2807H747.314C748.429 97.2807 749.544 96.1657 749.544 94.772V54.3556C749.544 53.2406 750.659 52.1257 752.053 52.1257H793.027C794.42 52.1257 795.535 53.2406 795.535 54.3556V94.772C795.535 96.1657 796.65 97.2807 797.765 97.2807H813.096C814.489 97.2807 815.604 98.3956 815.604 99.5105V134.352C815.604 135.746 814.489 136.861 813.096 136.861H797.765C796.65 136.861 795.535 137.976 795.535 139.091C795.535 151.355 795.535 187.591 795.535 187.869V188.984C795.257 193.444 794.978 199.576 798.601 203.2C800.831 205.43 804.176 206.545 808.357 206.545H816.44Z" fill="#333333"/>
<path d="M986.976 97.2807C988.37 97.2807 989.206 98.3956 989.206 99.7893V242.223C989.206 243.616 988.37 244.731 986.976 244.731H945.723C944.608 244.731 943.493 243.616 943.493 242.223V240.271C943.493 239.156 942.378 238.599 941.542 239.156C929.835 245.846 916.456 249.191 902.798 249.191C859.594 249.191 824.752 214.628 824.752 172.26C824.752 129.614 859.594 95.0508 902.798 95.0508C916.456 95.0508 929.835 98.3956 941.542 105.085C942.378 105.643 943.493 105.085 943.493 104.249V99.7893C943.493 98.3956 944.608 97.2807 945.723 97.2807H986.976ZM909.766 207.659C929.557 207.659 943.493 191.772 943.493 172.26C943.493 152.749 929.557 136.861 909.766 136.861C890.255 136.861 874.088 152.749 874.088 172.26C874.088 191.772 890.255 207.659 909.766 207.659Z" fill="#333333"/>
<path d="M1053.7 51.847C1054.82 51.847 1055.93 52.9619 1055.93 54.3556V244.174C1055.93 245.289 1054.82 246.404 1053.7 246.404H1008.83C1007.43 246.404 1006.6 245.289 1006.6 244.174V54.3556C1006.6 52.9619 1007.43 51.847 1008.83 51.847H1053.7Z" fill="url(#paint1_linear_2140_472)"/>
<path d="M1252.85 243.616C1253.41 245.289 1252.3 246.961 1250.63 246.961H1202.68C1201.29 246.961 1200.17 246.125 1199.9 244.731L1189.58 214.07C1189.3 213.234 1188.47 212.398 1187.35 212.398H1127.7C1126.87 212.398 1125.75 213.234 1125.47 214.07L1115.16 245.289C1114.88 246.125 1114.05 246.961 1112.93 246.961H1064.43C1062.76 246.961 1061.64 245.289 1062.2 243.616L1133.84 53.7981C1134.11 52.6831 1135.23 51.847 1136.62 51.847H1178.71C1179.83 51.847 1180.94 52.4044 1181.22 53.5194L1252.85 243.616ZM1172.58 172.539C1174.25 172.539 1175.37 170.867 1174.81 169.473L1160.04 124.039C1159.2 121.809 1155.86 121.809 1155.3 124.039L1140.25 169.473C1139.69 171.145 1140.8 172.539 1142.48 172.539H1172.58Z" fill="url(#paint2_linear_2140_472)"/>
<defs>
<linearGradient id="paint0_linear_2140_472" x1="1.8665e-05" y1="300.162" x2="300.162" y2="3.65621e-05" gradientUnits="userSpaceOnUse">
<stop stop-color="#FF4A36"/>
<stop offset="1" stop-color="#DD97FD"/>
</linearGradient>
<linearGradient id="paint1_linear_2140_472" x1="391.68" y1="249.258" x2="478.322" y2="-127.301" gradientUnits="userSpaceOnUse">
<stop stop-color="#FF4A36"/>
<stop offset="1" stop-color="#DD97FD"/>
</linearGradient>
<linearGradient id="paint2_linear_2140_472" x1="1008.94" y1="150.189" x2="1253" y2="150.472" gradientUnits="userSpaceOnUse">
<stop stop-color="#FF4A36"/>
<stop offset="1" stop-color="#DD97FD"/>
</linearGradient>
</defs>
</svg>
