<svg width="1573" height="301" viewBox="0 0 1573 301" fill="none" xmlns="http://www.w3.org/2000/svg">
<rect width="300.061" height="300.061" rx="75.0942" fill="url(#paint0_linear_2312_508)"/>
<path fill-rule="evenodd" clip-rule="evenodd" d="M73.895 104.248L66.6027 106.681L66.5567 106.696C62.7177 108.007 59.2979 110.318 56.6503 113.392C54.0199 116.445 52.2464 120.141 51.5097 124.102C50.776 127.731 50.9486 131.485 52.0128 135.032C53.0842 138.604 55.0258 141.853 57.6633 144.489L57.6659 144.491L94.04 180.865L92.852 226.616C92.7874 229.103 94.0412 231.44 96.1495 232.761C98.2578 234.082 100.907 234.191 103.117 233.048L131.458 218.393L158.436 245.247C161.166 248.032 164.575 250.06 168.326 251.132C172.082 252.205 176.052 252.282 179.847 251.357C183.637 250.464 187.135 248.616 190.009 245.988C192.889 243.353 195.045 240.023 196.269 236.316L196.273 236.305L246.549 85.5876C248.033 81.5334 248.334 77.14 247.415 72.9199C246.487 68.6564 244.353 64.7494 241.268 61.664C238.182 58.5786 234.275 56.4448 230.012 55.5166C225.791 54.5978 221.398 54.8986 217.344 56.3823L159.587 75.6543L173.966 80.8848C175.898 81.5883 177.365 82.7783 178.369 84.2213L218.959 70.6773L101.576 168.501L67.6133 134.539L67.6107 134.536C66.6211 133.548 65.8927 132.329 65.4908 130.989C65.0888 129.649 65.0261 128.231 65.3081 126.861C65.3188 126.809 65.3289 126.757 65.3384 126.705C65.6169 125.177 66.298 123.752 67.3113 122.576C68.3201 121.405 69.6217 120.523 71.083 120.02L71.1026 120.013L93.9462 112.391L93.59 111.412L73.895 104.248ZM107.228 215.081L108.103 181.379L233.791 76.6344C233.975 78.0369 233.814 79.4671 233.317 80.7994C233.289 80.8757 233.262 80.9525 233.236 81.0297L182.917 231.875L182.909 231.899C182.44 233.319 181.615 234.596 180.511 235.605C179.408 236.614 178.063 237.323 176.607 237.663C176.594 237.666 176.581 237.669 176.568 237.673C176.554 237.676 176.54 237.679 176.527 237.682C175.099 238.033 173.605 238.006 172.191 237.602C170.778 237.198 169.494 236.432 168.468 235.38C168.451 235.363 168.434 235.345 168.417 235.328L168.395 235.307L137.748 204.8C135.581 202.643 132.269 202.132 129.553 203.537L107.228 215.081Z" fill="white"/>
<path fill-rule="evenodd" clip-rule="evenodd" d="M124.177 50.9767C122.247 45.6764 114.754 45.6764 112.824 50.9767L104.063 75.0621L79.9772 83.8232C74.6769 85.7539 74.6769 93.246 79.9772 95.1767L104.063 103.938L112.824 128.023C114.754 133.324 122.247 133.324 124.177 128.023L132.938 103.938L157.024 95.1767C162.324 93.246 162.324 85.7539 157.024 83.8232L132.938 75.0621L124.177 50.9767Z" fill="white"/>
<path d="M509.466 200.681C510.82 200.681 512.174 202.035 511.903 203.389L508.112 242.105C507.842 243.459 507.029 244.271 505.676 244.271H402.794C401.44 244.271 400.357 243.188 400.357 241.563V57.4587C400.357 56.3758 401.169 55.2928 402.523 55.2928H505.676C507.029 55.2928 507.842 56.105 508.112 57.4587L511.903 95.9041C511.903 97.5286 510.82 98.6115 509.466 98.6115H450.715C449.361 98.6115 448.278 99.6945 448.278 101.048V124.061C448.278 125.415 449.361 126.498 450.715 126.498H493.492C494.846 126.498 495.929 127.581 495.929 128.935V167.38C495.929 168.734 494.846 169.817 493.492 169.817H450.715C449.361 169.817 448.278 170.9 448.278 172.253V198.245C448.278 199.598 449.361 200.681 450.715 200.681H509.466ZM685.897 54.2098C687.251 54.2098 688.063 55.0221 688.063 56.3758V239.939C688.063 241.293 687.251 242.376 685.897 242.376H645.827C644.744 242.376 643.661 241.293 643.661 239.939V238.044C643.661 236.961 642.578 236.419 641.766 236.961C630.395 243.459 617.399 246.707 604.133 246.707C562.168 246.707 528.325 213.135 528.325 171.983C528.325 130.559 562.168 96.9871 604.133 96.9871C617.399 96.9871 630.395 100.236 641.766 106.734C642.578 107.275 643.661 106.734 643.661 105.922V56.3758C643.661 55.0221 644.744 54.2098 645.827 54.2098H685.897ZM610.901 206.367C630.124 206.367 643.661 190.935 643.661 171.983C643.661 153.031 630.124 137.598 610.901 137.598C591.949 137.598 576.246 153.031 576.246 171.983C576.246 190.935 591.949 206.367 610.901 206.367ZM747.178 99.153C748.261 99.153 749.344 100.236 749.344 101.59V240.21C749.344 241.293 748.261 242.376 747.178 242.376H707.108C705.754 242.376 704.942 241.293 704.942 240.21V101.59C704.942 100.236 705.754 99.153 707.108 99.153H747.178ZM747.178 54.2098C748.261 54.2098 749.344 55.2928 749.344 56.3758V85.6159C749.344 86.9696 748.261 88.0526 747.178 88.0526H707.108C705.754 88.0526 704.942 86.9696 704.942 85.6159V56.3758C704.942 55.2928 705.754 54.2098 707.108 54.2098H747.178ZM847.574 205.284C848.928 205.284 850.011 206.367 849.74 207.721L844.596 241.563C844.596 242.646 843.784 243.459 842.701 243.729C837.557 244 824.561 244.541 820.5 244.541C820.229 244.541 819.959 244.541 819.688 244.541C795.592 243.459 782.596 231.004 782.596 208.533V139.764C782.596 138.681 781.513 137.598 780.43 137.598H765.539C764.186 137.598 763.373 136.515 763.373 135.162V101.319C763.373 100.236 764.186 99.153 765.539 99.153H780.43C781.513 99.153 782.596 98.07 782.596 96.7163V57.4587C782.596 56.3758 783.679 55.2928 785.033 55.2928H824.832C826.186 55.2928 827.269 56.3758 827.269 57.4587V96.7163C827.269 98.07 828.352 99.153 829.435 99.153H844.325C845.679 99.153 846.762 100.236 846.762 101.319V135.162C846.762 136.515 845.679 137.598 844.325 137.598H829.435C828.352 137.598 827.269 138.681 827.269 139.764C827.269 151.677 827.269 186.873 827.269 187.144V188.227C826.998 192.559 826.727 198.515 830.247 202.035C832.413 204.201 835.662 205.284 839.723 205.284H847.574ZM1013.22 99.153C1014.57 99.153 1015.39 100.236 1015.39 101.59V239.939C1015.39 241.293 1014.57 242.376 1013.22 242.376H973.15C972.067 242.376 970.984 241.293 970.984 239.939V238.044C970.984 236.961 969.901 236.419 969.089 236.961C957.718 243.459 944.722 246.707 931.456 246.707C889.491 246.707 855.648 213.135 855.648 171.983C855.648 130.559 889.491 96.9871 931.456 96.9871C944.722 96.9871 957.718 100.236 969.089 106.734C969.901 107.275 970.984 106.734 970.984 105.922V101.59C970.984 100.236 972.067 99.153 973.15 99.153H1013.22ZM938.224 206.367C957.447 206.367 970.984 190.935 970.984 171.983C970.984 153.031 957.447 137.598 938.224 137.598C919.272 137.598 903.569 153.031 903.569 171.983C903.569 190.935 919.272 206.367 938.224 206.367ZM1076.67 54.2098C1078.02 54.2098 1079.1 55.2928 1079.1 56.3758V240.21C1079.1 241.293 1078.02 242.376 1076.67 242.376H1034.43C1033.08 242.376 1032.26 241.293 1032.26 240.21V56.3758C1032.26 55.2928 1033.08 54.2098 1034.43 54.2098H1076.67Z" fill="#333333"/>
<path d="M1219.45 200.14C1220.8 200.14 1221.89 201.223 1221.89 202.576L1218.37 241.563C1218.37 242.646 1217.28 243.729 1215.93 243.729H1098.16C1096.53 243.729 1095.45 242.105 1096.26 240.48L1108.99 211.782L1154.47 101.319C1155.01 99.9652 1153.93 98.07 1152.31 98.07H1097.89C1096.53 98.07 1095.72 97.2578 1095.72 95.9041L1098.97 56.9172C1098.97 55.5635 1100.05 54.7513 1101.41 54.7513H1219.72C1221.07 54.7513 1222.43 56.3758 1221.61 57.7295L1208.35 94.0089L1167.74 197.162C1166.93 198.515 1168.01 200.14 1169.63 200.14H1219.45ZM1385.23 99.153C1386.58 99.153 1387.39 100.236 1387.39 101.59V239.939C1387.39 241.293 1386.58 242.376 1385.23 242.376H1345.16C1344.07 242.376 1342.99 241.293 1342.99 239.939V238.044C1342.99 236.961 1341.91 236.419 1341.09 236.961C1329.72 243.459 1316.73 246.707 1303.46 246.707C1261.5 246.707 1227.65 213.135 1227.65 171.983C1227.65 130.559 1261.5 96.9871 1303.46 96.9871C1316.73 96.9871 1329.72 100.236 1341.09 106.734C1341.91 107.275 1342.99 106.734 1342.99 105.922V101.59C1342.99 100.236 1344.07 99.153 1345.16 99.153H1385.23ZM1310.23 206.367C1329.45 206.367 1342.99 190.935 1342.99 171.983C1342.99 153.031 1329.45 137.598 1310.23 137.598C1291.28 137.598 1275.58 153.031 1275.58 171.983C1275.58 190.935 1291.28 206.367 1310.23 206.367ZM1488.2 96.9871C1529.89 96.9871 1564.01 130.559 1564.01 171.983C1564.01 213.135 1529.89 246.978 1488.2 246.978C1474.93 246.978 1461.94 243.459 1450.3 236.961C1449.76 236.69 1448.67 237.231 1448.67 238.044V287.319C1448.67 288.672 1447.59 289.755 1446.51 289.755H1406.44C1405.08 289.755 1404.27 288.672 1404.27 287.319V101.59C1404.27 100.236 1405.08 99.153 1406.44 99.153H1446.51C1447.59 99.153 1448.67 100.236 1448.67 101.59V105.922C1448.67 106.734 1449.76 107.275 1450.3 107.005C1461.94 100.507 1474.93 96.9871 1488.2 96.9871ZM1481.16 206.367C1500.38 206.367 1516.09 190.935 1516.09 171.983C1516.09 153.031 1500.38 137.598 1481.16 137.598C1461.94 137.598 1448.67 153.031 1448.67 171.983C1448.67 190.935 1461.94 206.367 1481.16 206.367Z" fill="url(#paint1_linear_2312_508)"/>
<defs>
<linearGradient id="paint0_linear_2312_508" x1="-1.68223e-06" y1="300.061" x2="325.405" y2="269.454" gradientUnits="userSpaceOnUse">
<stop stop-color="#22A93A"/>
<stop offset="1" stop-color="#60D669"/>
</linearGradient>
<linearGradient id="paint1_linear_2312_508" x1="392" y1="298" x2="1487.21" y2="-166.345" gradientUnits="userSpaceOnUse">
<stop stop-color="#22A93A"/>
<stop offset="1" stop-color="#60D669"/>
</linearGradient>
</defs>
</svg>
