<svg width="143" height="9" viewBox="0 0 143 9" fill="none" xmlns="http://www.w3.org/2000/svg">
<path d="M1.98265 6.55005C1.67598 6.55005 1.42098 6.49339 1.21765 6.38005C1.01765 6.26672 0.86598 6.10839 0.762646 5.90505C0.659313 5.70172 0.602646 5.46505 0.592646 5.19505C0.589313 5.05839 0.587646 4.91172 0.587646 4.75505C0.587646 4.59839 0.589313 4.44839 0.592646 4.30505C0.602646 4.03505 0.659313 3.79839 0.762646 3.59505C0.86598 3.39172 1.01765 3.23339 1.21765 3.12005C1.42098 3.00672 1.67598 2.95005 1.98265 2.95005C2.21265 2.95005 2.41431 2.98172 2.58765 3.04505C2.76098 3.10839 2.90431 3.19339 3.01765 3.30005C3.13431 3.40672 3.22265 3.52672 3.28265 3.66005C3.34265 3.79005 3.37598 3.92505 3.38265 4.06505C3.38598 4.09505 3.37598 4.12005 3.35265 4.14005C3.33265 4.16005 3.30765 4.17005 3.27765 4.17005H3.00265C2.97265 4.17005 2.94598 4.16172 2.92265 4.14505C2.90265 4.12839 2.88765 4.09839 2.87765 4.05505C2.82098 3.79505 2.71431 3.61672 2.55765 3.52005C2.40431 3.42339 2.21098 3.37505 1.97765 3.37505C1.71098 3.37505 1.49931 3.45172 1.34265 3.60505C1.18598 3.75505 1.10098 3.99672 1.08765 4.33005C1.07765 4.60339 1.07765 4.88339 1.08765 5.17005C1.10098 5.50339 1.18598 5.74672 1.34265 5.90005C1.49931 6.05005 1.71098 6.12505 1.97765 6.12505C2.21098 6.12505 2.40431 6.07672 2.55765 5.98005C2.71431 5.88339 2.82098 5.70505 2.87765 5.44505C2.88765 5.40172 2.90265 5.37172 2.92265 5.35505C2.94598 5.33839 2.97265 5.33005 3.00265 5.33005H3.27765C3.30765 5.33005 3.33265 5.34005 3.35265 5.36005C3.37598 5.38005 3.38598 5.40505 3.38265 5.43505C3.37598 5.57505 3.34265 5.71172 3.28265 5.84505C3.22265 5.97505 3.13431 6.09339 3.01765 6.20005C2.90431 6.30672 2.76098 6.39172 2.58765 6.45505C2.41431 6.51839 2.21265 6.55005 1.98265 6.55005Z" fill="url(#paint0_linear_1223_446)"/>
<path d="M5.05272 6.55005C4.79939 6.55005 4.58772 6.50172 4.41772 6.40505C4.24772 6.30839 4.11772 6.17505 4.02772 6.00505C3.93772 5.83172 3.88772 5.63505 3.87772 5.41505C3.87439 5.35839 3.87272 5.28672 3.87272 5.20005C3.87272 5.11005 3.87439 5.03839 3.87772 4.98505C3.88772 4.76172 3.93772 4.56505 4.02772 4.39505C4.12106 4.22505 4.25272 4.09172 4.42272 3.99505C4.59272 3.89839 4.80272 3.85005 5.05272 3.85005C5.30272 3.85005 5.51272 3.89839 5.68272 3.99505C5.85272 4.09172 5.98272 4.22505 6.07272 4.39505C6.16606 4.56505 6.21772 4.76172 6.22772 4.98505C6.23106 5.03839 6.23272 5.11005 6.23272 5.20005C6.23272 5.28672 6.23106 5.35839 6.22772 5.41505C6.21772 5.63505 6.16772 5.83172 6.07772 6.00505C5.98772 6.17505 5.85772 6.30839 5.68772 6.40505C5.51772 6.50172 5.30606 6.55005 5.05272 6.55005ZM5.05272 6.16505C5.25939 6.16505 5.42439 6.10005 5.54772 5.97005C5.67106 5.83672 5.73772 5.64339 5.74772 5.39005C5.75106 5.34005 5.75272 5.27672 5.75272 5.20005C5.75272 5.12339 5.75106 5.06005 5.74772 5.01005C5.73772 4.75672 5.67106 4.56505 5.54772 4.43505C5.42439 4.30172 5.25939 4.23505 5.05272 4.23505C4.84606 4.23505 4.67939 4.30172 4.55272 4.43505C4.42939 4.56505 4.36439 4.75672 4.35772 5.01005C4.35439 5.06005 4.35272 5.12339 4.35272 5.20005C4.35272 5.27672 4.35439 5.34005 4.35772 5.39005C4.36439 5.64339 4.42939 5.83672 4.55272 5.97005C4.67939 6.10005 4.84606 6.16505 5.05272 6.16505Z" fill="url(#paint1_linear_1223_446)"/>
<path d="M6.97382 6.50005C6.94048 6.50005 6.91215 6.49005 6.88882 6.47005C6.86882 6.44672 6.85882 6.41839 6.85882 6.38505V4.01505C6.85882 3.98172 6.86882 3.95505 6.88882 3.93505C6.91215 3.91172 6.94048 3.90005 6.97382 3.90005H7.19882C7.23215 3.90005 7.25882 3.91172 7.27882 3.93505C7.30215 3.95505 7.31382 3.98172 7.31382 4.01505V4.19005C7.39049 4.08672 7.48715 4.00505 7.60382 3.94505C7.72049 3.88172 7.86049 3.85005 8.02382 3.85005C8.40049 3.84672 8.66715 4.00005 8.82382 4.31005C8.90048 4.17005 9.01215 4.05839 9.15882 3.97505C9.30548 3.89172 9.47215 3.85005 9.65882 3.85005C9.83215 3.85005 9.98882 3.89005 10.1288 3.97005C10.2722 4.05005 10.3838 4.17172 10.4638 4.33505C10.5472 4.49505 10.5888 4.69672 10.5888 4.94005V6.38505C10.5888 6.41839 10.5772 6.44672 10.5538 6.47005C10.5338 6.49005 10.5072 6.50005 10.4738 6.50005H10.2388C10.2055 6.50005 10.1772 6.49005 10.1538 6.47005C10.1338 6.44672 10.1238 6.41839 10.1238 6.38505V4.98505C10.1238 4.79839 10.0972 4.65172 10.0438 4.54505C9.99049 4.43839 9.91882 4.36339 9.82882 4.32005C9.73882 4.27672 9.64048 4.25505 9.53382 4.25505C9.44715 4.25505 9.35882 4.27672 9.26882 4.32005C9.17882 4.36339 9.10382 4.43839 9.04382 4.54505C8.98715 4.65172 8.95882 4.79839 8.95882 4.98505V6.38505C8.95882 6.41839 8.94715 6.44672 8.92382 6.47005C8.90382 6.49005 8.87715 6.50005 8.84382 6.50005H8.60882C8.57548 6.50005 8.54715 6.49005 8.52382 6.47005C8.50382 6.44672 8.49382 6.41839 8.49382 6.38505V4.98505C8.49382 4.79839 8.46548 4.65172 8.40882 4.54505C8.35215 4.43839 8.27882 4.36339 8.18882 4.32005C8.09882 4.27672 8.00382 4.25505 7.90382 4.25505C7.81715 4.25505 7.72882 4.27672 7.63882 4.32005C7.54882 4.36339 7.47382 4.43839 7.41382 4.54505C7.35715 4.65172 7.32882 4.79672 7.32882 4.98005V6.38505C7.32882 6.41839 7.31715 6.44672 7.29382 6.47005C7.27382 6.49005 7.24715 6.50005 7.21382 6.50005H6.97382Z" fill="url(#paint2_linear_1223_446)"/>
<path d="M11.4222 7.45005C11.3888 7.45005 11.3605 7.43839 11.3372 7.41505C11.3172 7.39505 11.3072 7.36839 11.3072 7.33505V4.01505C11.3072 3.98172 11.3172 3.95505 11.3372 3.93505C11.3605 3.91172 11.3888 3.90005 11.4222 3.90005H11.6522C11.6855 3.90005 11.7122 3.91172 11.7322 3.93505C11.7555 3.95505 11.7672 3.98172 11.7672 4.01505V4.23505C11.8472 4.12505 11.9538 4.03339 12.0872 3.96005C12.2205 3.88672 12.3872 3.85005 12.5872 3.85005C12.7738 3.85005 12.9322 3.88172 13.0622 3.94505C13.1955 4.00839 13.3038 4.09505 13.3872 4.20505C13.4738 4.31505 13.5388 4.44005 13.5822 4.58005C13.6255 4.72005 13.6488 4.87005 13.6522 5.03005C13.6555 5.08339 13.6572 5.14005 13.6572 5.20005C13.6572 5.26005 13.6555 5.31672 13.6522 5.37005C13.6488 5.52672 13.6255 5.67672 13.5822 5.82005C13.5388 5.96005 13.4738 6.08505 13.3872 6.19505C13.3038 6.30172 13.1955 6.38839 13.0622 6.45505C12.9322 6.51839 12.7738 6.55005 12.5872 6.55005C12.3938 6.55005 12.2305 6.51505 12.0972 6.44505C11.9672 6.37172 11.8605 6.28172 11.7772 6.17505V7.33505C11.7772 7.36839 11.7672 7.39505 11.7472 7.41505C11.7272 7.43839 11.6988 7.45005 11.6622 7.45005H11.4222ZM12.4822 6.14505C12.6555 6.14505 12.7905 6.10839 12.8872 6.03505C12.9872 5.95839 13.0588 5.86005 13.1022 5.74005C13.1455 5.61672 13.1705 5.48505 13.1772 5.34505C13.1805 5.24839 13.1805 5.15172 13.1772 5.05505C13.1705 4.91505 13.1455 4.78505 13.1022 4.66505C13.0588 4.54172 12.9872 4.44339 12.8872 4.37005C12.7905 4.29339 12.6555 4.25505 12.4822 4.25505C12.3188 4.25505 12.1855 4.29339 12.0822 4.37005C11.9822 4.44672 11.9072 4.54505 11.8572 4.66505C11.8105 4.78172 11.7838 4.90172 11.7772 5.02505C11.7738 5.07839 11.7722 5.14172 11.7722 5.21505C11.7722 5.28839 11.7738 5.35339 11.7772 5.41005C11.7805 5.52672 11.8072 5.64172 11.8572 5.75505C11.9105 5.86839 11.9888 5.96172 12.0922 6.03505C12.1955 6.10839 12.3255 6.14505 12.4822 6.14505Z" fill="url(#paint3_linear_1223_446)"/>
<path d="M14.3957 6.50005C14.3624 6.50005 14.334 6.49005 14.3107 6.47005C14.2907 6.44672 14.2807 6.41839 14.2807 6.38505V4.02005C14.2807 3.98672 14.2907 3.95839 14.3107 3.93505C14.334 3.91172 14.3624 3.90005 14.3957 3.90005H14.6257C14.659 3.90005 14.6874 3.91172 14.7107 3.93505C14.734 3.95839 14.7457 3.98672 14.7457 4.02005V4.24005C14.8124 4.12672 14.904 4.04172 15.0207 3.98505C15.1374 3.92839 15.2774 3.90005 15.4407 3.90005H15.6407C15.674 3.90005 15.7007 3.91172 15.7207 3.93505C15.7407 3.95505 15.7507 3.98172 15.7507 4.01505V4.22005C15.7507 4.25339 15.7407 4.28005 15.7207 4.30005C15.7007 4.32005 15.674 4.33005 15.6407 4.33005H15.3407C15.1607 4.33005 15.019 4.38339 14.9157 4.49005C14.8124 4.59339 14.7607 4.73505 14.7607 4.91505V6.38505C14.7607 6.41839 14.749 6.44672 14.7257 6.47005C14.7024 6.49005 14.674 6.50005 14.6407 6.50005H14.3957Z" fill="url(#paint4_linear_1223_446)"/>
<path d="M16.866 6.55005C16.6994 6.55005 16.5477 6.51672 16.411 6.45005C16.2744 6.38339 16.1644 6.29339 16.081 6.18005C15.9977 6.06672 15.956 5.93839 15.956 5.79505C15.956 5.56505 16.0494 5.38172 16.236 5.24505C16.4227 5.10839 16.666 5.01839 16.966 4.97505L17.711 4.87005V4.72505C17.711 4.56505 17.6644 4.44005 17.571 4.35005C17.481 4.26005 17.3327 4.21505 17.126 4.21505C16.976 4.21505 16.8544 4.24505 16.761 4.30505C16.671 4.36505 16.6077 4.44172 16.571 4.53505C16.551 4.58505 16.516 4.61005 16.466 4.61005H16.241C16.2044 4.61005 16.176 4.60005 16.156 4.58005C16.1394 4.55672 16.131 4.53005 16.131 4.50005C16.131 4.45005 16.1494 4.38839 16.186 4.31505C16.226 4.24172 16.286 4.17005 16.366 4.10005C16.446 4.03005 16.5477 3.97172 16.671 3.92505C16.7977 3.87505 16.951 3.85005 17.131 3.85005C17.331 3.85005 17.4994 3.87672 17.636 3.93005C17.7727 3.98005 17.8794 4.04839 17.956 4.13505C18.036 4.22172 18.0927 4.32005 18.126 4.43005C18.1627 4.54005 18.181 4.65172 18.181 4.76505V6.38505C18.181 6.41839 18.1694 6.44672 18.146 6.47005C18.126 6.49005 18.0994 6.50005 18.066 6.50005H17.836C17.7994 6.50005 17.771 6.49005 17.751 6.47005C17.731 6.44672 17.721 6.41839 17.721 6.38505V6.17005C17.6777 6.23005 17.6194 6.29005 17.546 6.35005C17.4727 6.40672 17.381 6.45505 17.271 6.49505C17.161 6.53172 17.026 6.55005 16.866 6.55005ZM16.971 6.17505C17.1077 6.17505 17.2327 6.14672 17.346 6.09005C17.4594 6.03005 17.5477 5.93839 17.611 5.81505C17.6777 5.69172 17.711 5.53672 17.711 5.35005V5.21005L17.131 5.29505C16.8944 5.32839 16.716 5.38505 16.596 5.46505C16.476 5.54172 16.416 5.64005 16.416 5.76005C16.416 5.85339 16.4427 5.93172 16.496 5.99505C16.5527 6.05505 16.6227 6.10005 16.706 6.13005C16.7927 6.16005 16.881 6.17505 16.971 6.17505Z" fill="url(#paint5_linear_1223_446)"/>
<path d="M21.0254 6.55005C20.8388 6.55005 20.6788 6.52672 20.5454 6.48005C20.4121 6.43339 20.3038 6.37672 20.2204 6.31005C20.1371 6.24339 20.0738 6.17672 20.0304 6.11005C19.9904 6.04339 19.9688 5.99005 19.9654 5.95005C19.9621 5.91339 19.9738 5.88505 20.0004 5.86505C20.0271 5.84505 20.0538 5.83505 20.0804 5.83505H20.3004C20.3204 5.83505 20.3354 5.83839 20.3454 5.84505C20.3588 5.84839 20.3754 5.86172 20.3954 5.88505C20.4388 5.93172 20.4871 5.97839 20.5404 6.02505C20.5938 6.07172 20.6588 6.11005 20.7354 6.14005C20.8154 6.17005 20.9138 6.18505 21.0304 6.18505C21.2004 6.18505 21.3404 6.15339 21.4504 6.09005C21.5604 6.02339 21.6154 5.92672 21.6154 5.80005C21.6154 5.71672 21.5921 5.65005 21.5454 5.60005C21.5021 5.55005 21.4221 5.50505 21.3054 5.46505C21.1921 5.42505 21.0354 5.38339 20.8354 5.34005C20.6354 5.29339 20.4771 5.23672 20.3604 5.17005C20.2438 5.10005 20.1604 5.01839 20.1104 4.92505C20.0604 4.82839 20.0354 4.72005 20.0354 4.60005C20.0354 4.47672 20.0721 4.35839 20.1454 4.24505C20.2188 4.12839 20.3254 4.03339 20.4654 3.96005C20.6088 3.88672 20.7871 3.85005 21.0004 3.85005C21.1738 3.85005 21.3221 3.87172 21.4454 3.91505C21.5688 3.95839 21.6704 4.01339 21.7504 4.08005C21.8304 4.14339 21.8904 4.20672 21.9304 4.27005C21.9704 4.33339 21.9921 4.38672 21.9954 4.43005C21.9988 4.46339 21.9888 4.49172 21.9654 4.51505C21.9421 4.53505 21.9154 4.54505 21.8854 4.54505H21.6754C21.6521 4.54505 21.6321 4.54005 21.6154 4.53005C21.6021 4.52005 21.5888 4.50839 21.5754 4.49505C21.5421 4.45172 21.5021 4.40839 21.4554 4.36505C21.4121 4.32172 21.3538 4.28672 21.2804 4.26005C21.2104 4.23005 21.1171 4.21505 21.0004 4.21505C20.8338 4.21505 20.7088 4.25005 20.6254 4.32005C20.5421 4.39005 20.5004 4.47839 20.5004 4.58505C20.5004 4.64839 20.5188 4.70505 20.5554 4.75505C20.5921 4.80505 20.6621 4.85005 20.7654 4.89005C20.8688 4.93005 21.0221 4.97339 21.2254 5.02005C21.4454 5.06339 21.6188 5.12172 21.7454 5.19505C21.8721 5.26839 21.9621 5.35339 22.0154 5.45005C22.0688 5.54672 22.0954 5.65839 22.0954 5.78505C22.0954 5.92505 22.0538 6.05339 21.9704 6.17005C21.8904 6.28672 21.7704 6.38005 21.6104 6.45005C21.4538 6.51672 21.2588 6.55005 21.0254 6.55005Z" fill="url(#paint6_linear_1223_446)"/>
<path d="M23.7092 6.55005C23.3659 6.55005 23.0926 6.44505 22.8892 6.23505C22.6859 6.02172 22.5742 5.73172 22.5542 5.36505C22.5509 5.32172 22.5492 5.26672 22.5492 5.20005C22.5492 5.13005 22.5509 5.07339 22.5542 5.03005C22.5676 4.79339 22.6226 4.58672 22.7192 4.41005C22.8159 4.23005 22.9476 4.09172 23.1142 3.99505C23.2842 3.89839 23.4826 3.85005 23.7092 3.85005C23.9626 3.85005 24.1742 3.90339 24.3442 4.01005C24.5176 4.11672 24.6492 4.26839 24.7392 4.46505C24.8292 4.66172 24.8742 4.89172 24.8742 5.15505V5.24005C24.8742 5.27672 24.8626 5.30505 24.8392 5.32505C24.8192 5.34505 24.7926 5.35505 24.7592 5.35505H23.0292C23.0292 5.35839 23.0292 5.36505 23.0292 5.37505C23.0292 5.38505 23.0292 5.39339 23.0292 5.40005C23.0359 5.53672 23.0659 5.66505 23.1192 5.78505C23.1726 5.90172 23.2492 5.99672 23.3492 6.07005C23.4492 6.14339 23.5692 6.18005 23.7092 6.18005C23.8292 6.18005 23.9292 6.16172 24.0092 6.12505C24.0892 6.08839 24.1542 6.04839 24.2042 6.00505C24.2542 5.95839 24.2876 5.92339 24.3042 5.90005C24.3342 5.85672 24.3576 5.83172 24.3742 5.82505C24.3909 5.81505 24.4176 5.81005 24.4542 5.81005H24.6942C24.7276 5.81005 24.7542 5.82005 24.7742 5.84005C24.7976 5.85672 24.8076 5.88172 24.8042 5.91505C24.8009 5.96505 24.7742 6.02672 24.7242 6.10005C24.6742 6.17005 24.6026 6.24005 24.5092 6.31005C24.4159 6.38005 24.3026 6.43839 24.1692 6.48505C24.0359 6.52839 23.8826 6.55005 23.7092 6.55005ZM23.0292 5.01005H24.3992V4.99505C24.3992 4.84505 24.3709 4.71172 24.3142 4.59505C24.2609 4.47839 24.1826 4.38672 24.0792 4.32005C23.9759 4.25005 23.8526 4.21505 23.7092 4.21505C23.5659 4.21505 23.4426 4.25005 23.3392 4.32005C23.2392 4.38672 23.1626 4.47839 23.1092 4.59505C23.0559 4.71172 23.0292 4.84505 23.0292 4.99505V5.01005Z" fill="url(#paint7_linear_1223_446)"/>
<path d="M26.5371 7.60005C26.3104 7.60005 26.1238 7.57005 25.9771 7.51005C25.8338 7.45005 25.7204 7.37672 25.6371 7.29005C25.5571 7.20672 25.4988 7.12172 25.4621 7.03505C25.4288 6.95172 25.4104 6.88505 25.4071 6.83505C25.4038 6.80172 25.4138 6.77339 25.4371 6.75005C25.4638 6.72672 25.4921 6.71505 25.5221 6.71505H25.7621C25.7921 6.71505 25.8171 6.72172 25.8371 6.73505C25.8571 6.74839 25.8738 6.77672 25.8871 6.82005C25.9071 6.87005 25.9371 6.92505 25.9771 6.98505C26.0171 7.04839 26.0788 7.10172 26.1621 7.14505C26.2454 7.19172 26.3621 7.21505 26.5121 7.21505C26.6688 7.21505 26.8004 7.19339 26.9071 7.15005C27.0138 7.11005 27.0938 7.03672 27.1471 6.93005C27.2038 6.82672 27.2321 6.68339 27.2321 6.50005V6.16005C27.1521 6.26339 27.0471 6.35005 26.9171 6.42005C26.7871 6.48672 26.6238 6.52005 26.4271 6.52005C26.2404 6.52005 26.0804 6.48839 25.9471 6.42505C25.8138 6.35839 25.7038 6.27005 25.6171 6.16005C25.5338 6.04672 25.4704 5.91839 25.4271 5.77505C25.3871 5.63172 25.3638 5.48172 25.3571 5.32505C25.3538 5.23172 25.3538 5.14005 25.3571 5.05005C25.3638 4.89339 25.3871 4.74339 25.4271 4.60005C25.4704 4.45672 25.5338 4.32839 25.6171 4.21505C25.7038 4.10172 25.8138 4.01339 25.9471 3.95005C26.0804 3.88339 26.2404 3.85005 26.4271 3.85005C26.6271 3.85005 26.7921 3.88839 26.9221 3.96505C27.0554 4.03839 27.1638 4.12839 27.2471 4.23505V4.02005C27.2471 3.98672 27.2571 3.95839 27.2771 3.93505C27.3004 3.91172 27.3288 3.90005 27.3621 3.90005H27.5921C27.6254 3.90005 27.6538 3.91172 27.6771 3.93505C27.7004 3.95839 27.7121 3.98672 27.7121 4.02005V6.44505C27.7121 6.66839 27.6738 6.86672 27.5971 7.04005C27.5238 7.21339 27.4004 7.35005 27.2271 7.45005C27.0571 7.55005 26.8271 7.60005 26.5371 7.60005ZM26.5271 6.12005C26.6938 6.12005 26.8271 6.08172 26.9271 6.00505C27.0304 5.92839 27.1054 5.83172 27.1521 5.71505C27.2021 5.59839 27.2288 5.48005 27.2321 5.36005C27.2354 5.31339 27.2371 5.25672 27.2371 5.19005C27.2371 5.12005 27.2354 5.06172 27.2321 5.01505C27.2288 4.89505 27.2021 4.77672 27.1521 4.66005C27.1054 4.54339 27.0304 4.44672 26.9271 4.37005C26.8271 4.29339 26.6938 4.25505 26.5271 4.25505C26.3604 4.25505 26.2271 4.29339 26.1271 4.37005C26.0271 4.44339 25.9554 4.54172 25.9121 4.66505C25.8688 4.78505 25.8438 4.91505 25.8371 5.05505C25.8338 5.14172 25.8338 5.23005 25.8371 5.32005C25.8438 5.46005 25.8688 5.59172 25.9121 5.71505C25.9554 5.83505 26.0271 5.93339 26.1271 6.01005C26.2271 6.08339 26.3604 6.12005 26.5271 6.12005Z" fill="url(#paint8_linear_1223_446)"/>
<path d="M29.4255 6.55005C29.2122 6.55005 29.0305 6.50339 28.8805 6.41005C28.7338 6.31339 28.6222 6.18005 28.5455 6.01005C28.4688 5.84005 28.4305 5.64505 28.4305 5.42505V4.01505C28.4305 3.98172 28.4405 3.95505 28.4605 3.93505C28.4838 3.91172 28.5122 3.90005 28.5455 3.90005H28.7955C28.8288 3.90005 28.8555 3.91172 28.8755 3.93505C28.8988 3.95505 28.9105 3.98172 28.9105 4.01505V5.40005C28.9105 5.89672 29.1272 6.14505 29.5605 6.14505C29.7672 6.14505 29.9322 6.08005 30.0555 5.95005C30.1822 5.81672 30.2455 5.63339 30.2455 5.40005V4.01505C30.2455 3.98172 30.2555 3.95505 30.2755 3.93505C30.2988 3.91172 30.3272 3.90005 30.3605 3.90005H30.6055C30.6422 3.90005 30.6705 3.91172 30.6905 3.93505C30.7105 3.95505 30.7205 3.98172 30.7205 4.01505V6.38505C30.7205 6.41839 30.7105 6.44672 30.6905 6.47005C30.6705 6.49005 30.6422 6.50005 30.6055 6.50005H30.3755C30.3422 6.50005 30.3138 6.49005 30.2905 6.47005C30.2705 6.44672 30.2605 6.41839 30.2605 6.38505V6.16505C30.1705 6.28172 30.0605 6.37505 29.9305 6.44505C29.8038 6.51505 29.6355 6.55005 29.4255 6.55005Z" fill="url(#paint9_linear_1223_446)"/>
<path d="M31.5783 6.50005C31.545 6.50005 31.5166 6.49005 31.4933 6.47005C31.4733 6.44672 31.4633 6.41839 31.4633 6.38505V4.02005C31.4633 3.98672 31.4733 3.95839 31.4933 3.93505C31.5166 3.91172 31.545 3.90005 31.5783 3.90005H31.8083C31.8416 3.90005 31.87 3.91172 31.8933 3.93505C31.9166 3.95839 31.9283 3.98672 31.9283 4.02005V4.24005C31.995 4.12672 32.0866 4.04172 32.2033 3.98505C32.32 3.92839 32.46 3.90005 32.6233 3.90005H32.8233C32.8566 3.90005 32.8833 3.91172 32.9033 3.93505C32.9233 3.95505 32.9333 3.98172 32.9333 4.01505V4.22005C32.9333 4.25339 32.9233 4.28005 32.9033 4.30005C32.8833 4.32005 32.8566 4.33005 32.8233 4.33005H32.5233C32.3433 4.33005 32.2016 4.38339 32.0983 4.49005C31.995 4.59339 31.9433 4.73505 31.9433 4.91505V6.38505C31.9433 6.41839 31.9316 6.44672 31.9083 6.47005C31.885 6.49005 31.8566 6.50005 31.8233 6.50005H31.5783Z" fill="url(#paint10_linear_1223_446)"/>
<path d="M34.0487 6.55005C33.882 6.55005 33.7303 6.51672 33.5937 6.45005C33.457 6.38339 33.347 6.29339 33.2637 6.18005C33.1803 6.06672 33.1387 5.93839 33.1387 5.79505C33.1387 5.56505 33.232 5.38172 33.4187 5.24505C33.6053 5.10839 33.8487 5.01839 34.1487 4.97505L34.8937 4.87005V4.72505C34.8937 4.56505 34.847 4.44005 34.7537 4.35005C34.6637 4.26005 34.5153 4.21505 34.3087 4.21505C34.1587 4.21505 34.037 4.24505 33.9437 4.30505C33.8537 4.36505 33.7903 4.44172 33.7537 4.53505C33.7337 4.58505 33.6987 4.61005 33.6487 4.61005H33.4237C33.387 4.61005 33.3587 4.60005 33.3387 4.58005C33.322 4.55672 33.3137 4.53005 33.3137 4.50005C33.3137 4.45005 33.332 4.38839 33.3687 4.31505C33.4087 4.24172 33.4687 4.17005 33.5487 4.10005C33.6287 4.03005 33.7303 3.97172 33.8537 3.92505C33.9803 3.87505 34.1337 3.85005 34.3137 3.85005C34.5137 3.85005 34.682 3.87672 34.8187 3.93005C34.9553 3.98005 35.062 4.04839 35.1387 4.13505C35.2187 4.22172 35.2753 4.32005 35.3087 4.43005C35.3453 4.54005 35.3637 4.65172 35.3637 4.76505V6.38505C35.3637 6.41839 35.352 6.44672 35.3287 6.47005C35.3087 6.49005 35.282 6.50005 35.2487 6.50005H35.0187C34.982 6.50005 34.9537 6.49005 34.9337 6.47005C34.9137 6.44672 34.9037 6.41839 34.9037 6.38505V6.17005C34.8603 6.23005 34.802 6.29005 34.7287 6.35005C34.6553 6.40672 34.5637 6.45505 34.4537 6.49505C34.3437 6.53172 34.2087 6.55005 34.0487 6.55005ZM34.1537 6.17505C34.2903 6.17505 34.4153 6.14672 34.5287 6.09005C34.642 6.03005 34.7303 5.93839 34.7937 5.81505C34.8603 5.69172 34.8937 5.53672 34.8937 5.35005V5.21005L34.3137 5.29505C34.077 5.32839 33.8987 5.38505 33.7787 5.46505C33.6587 5.54172 33.5987 5.64005 33.5987 5.76005C33.5987 5.85339 33.6253 5.93172 33.6787 5.99505C33.7353 6.05505 33.8053 6.10005 33.8887 6.13005C33.9753 6.16005 34.0637 6.17505 34.1537 6.17505Z" fill="url(#paint11_linear_1223_446)"/>
<path d="M45.9392 7.0432V3.57267C45.9391 3.56846 45.9398 3.56425 45.9414 3.56033C45.9429 3.5564 45.9452 3.55283 45.9482 3.54985C45.9512 3.54686 45.9548 3.54452 45.9587 3.54297C45.9626 3.54143 45.9668 3.5407 45.9711 3.54084H46.6374C46.6459 3.54084 46.654 3.5442 46.6599 3.55017C46.6659 3.55614 46.6693 3.56423 46.6693 3.57267V4.8233H46.6795C46.7692 4.71645 46.8822 4.6317 47.0099 4.5756C47.1375 4.51951 47.2764 4.49359 47.4157 4.49986C47.9404 4.49986 48.1088 4.8428 48.1088 5.29767V7.0432C48.1088 7.05164 48.1055 7.05974 48.0995 7.0657C48.0935 7.07167 48.0854 7.07503 48.077 7.07503H47.4106C47.4022 7.07503 47.3941 7.07167 47.3881 7.0657C47.3821 7.05974 47.3788 7.05164 47.3788 7.0432V5.36236C47.3788 5.16521 47.1734 5.10463 47.042 5.10463C46.9106 5.10463 46.6693 5.19088 46.6693 5.43731V7.0432C46.6693 7.05164 46.6659 7.05974 46.6599 7.0657C46.654 7.07167 46.6459 7.07503 46.6374 7.07503H45.9711C45.9626 7.07503 45.9545 7.07167 45.9486 7.0657C45.9426 7.05974 45.9392 7.05164 45.9392 7.0432Z" fill="url(#paint12_linear_1223_446)"/>
<path d="M51.2595 6.35834V5.16214H50.9514C50.943 5.16214 50.9349 5.15879 50.9289 5.15282C50.923 5.14685 50.9196 5.13875 50.9196 5.13031V4.70111C50.9197 4.69453 50.9218 4.68813 50.9257 4.6828C50.9295 4.67746 50.9349 4.67346 50.9412 4.67134L51.3519 4.5512L51.5706 3.86634C51.5727 3.86187 51.5759 3.85797 51.5798 3.85494C51.5837 3.85191 51.5883 3.84984 51.5932 3.84889H51.9525C51.9568 3.84874 51.961 3.84947 51.9649 3.85102C51.9688 3.85257 51.9724 3.8549 51.9754 3.85789C51.9784 3.86087 51.9807 3.86444 51.9822 3.86837C51.9838 3.87229 51.9845 3.8765 51.9844 3.88072V4.55634H52.5234C52.5276 4.55634 52.5318 4.55716 52.5356 4.55876C52.5395 4.56036 52.543 4.56271 52.5459 4.56566C52.5489 4.56862 52.5512 4.57213 52.5528 4.57599C52.5544 4.57985 52.5553 4.58399 52.5553 4.58817V5.13647C52.5553 5.1406 52.5544 5.14469 52.5528 5.1485C52.5512 5.15231 52.5489 5.15575 52.5459 5.15862C52.5429 5.1615 52.5394 5.16374 52.5355 5.16523C52.5317 5.16672 52.5276 5.16741 52.5234 5.16727H51.9844V6.28236C51.9844 6.39838 52.0501 6.46923 52.2113 6.46923H52.5193C52.5278 6.46923 52.5359 6.47259 52.5418 6.47856C52.5478 6.48452 52.5512 6.49262 52.5512 6.50106C52.5512 6.50928 52.5512 6.88713 52.5512 6.98262C52.551 6.98905 52.549 6.9953 52.5454 7.00059C52.5417 7.00588 52.5366 7.00999 52.5306 7.0124C52.3696 7.08654 52.1945 7.12507 52.0172 7.12535C51.4802 7.12535 51.2595 6.80704 51.2595 6.35834Z" fill="url(#paint13_linear_1223_446)"/>
<path d="M61.6953 6.35875V5.16255H61.3872C61.3788 5.16255 61.3707 5.1592 61.3647 5.15323C61.3587 5.14726 61.3554 5.13916 61.3554 5.13072V4.70153C61.3555 4.69494 61.3576 4.68854 61.3614 4.68321C61.3653 4.67788 61.3707 4.67387 61.3769 4.67175L61.7877 4.55162L62.0064 3.86675C62.0085 3.86052 62.0125 3.8551 62.0178 3.85124C62.0232 3.84738 62.0296 3.84526 62.0361 3.84519H62.3955C62.3997 3.84505 62.4039 3.84577 62.4079 3.84732C62.4118 3.84887 62.4154 3.85121 62.4183 3.85419C62.4213 3.85718 62.4237 3.86074 62.4252 3.86467C62.4268 3.8686 62.4275 3.8728 62.4273 3.87702V4.55264H62.9664C62.9706 4.55264 62.9747 4.55347 62.9786 4.55507C62.9824 4.55666 62.986 4.55901 62.9889 4.56197C62.9919 4.56492 62.9942 4.56843 62.9958 4.57229C62.9974 4.57615 62.9982 4.58029 62.9982 4.58447V5.13277C62.9982 5.13691 62.9974 5.141 62.9958 5.1448C62.9942 5.14861 62.9918 5.15205 62.9889 5.15493C62.9859 5.1578 62.9824 5.16005 62.9785 5.16153C62.9747 5.16302 62.9705 5.16372 62.9664 5.16358H62.4273V6.28277C62.4273 6.3988 62.4931 6.46965 62.6543 6.46965H62.9623C62.9707 6.46965 62.9788 6.473 62.9848 6.47897C62.9908 6.48494 62.9941 6.49303 62.9941 6.50147C62.9941 6.50969 62.9941 6.88754 62.9941 6.98304C62.994 6.98946 62.992 6.99571 62.9883 7.001C62.9847 7.0063 62.9796 7.0104 62.9736 7.01281C62.8126 7.08695 62.6375 7.12548 62.4602 7.12576C61.916 7.12576 61.6953 6.80746 61.6953 6.35875Z" fill="url(#paint14_linear_1223_446)"/>
<path d="M52.998 7.04304V4.57876C52.998 4.57032 53.0013 4.56222 53.0073 4.55625C53.0133 4.55029 53.0214 4.54693 53.0298 4.54693H53.6315C53.6381 4.54701 53.6445 4.54912 53.6498 4.55298C53.6551 4.55684 53.6591 4.56226 53.6613 4.56849L53.7311 4.81903H53.7414C53.8301 4.71227 53.9424 4.62751 54.0694 4.5714C54.1965 4.51528 54.3347 4.48934 54.4734 4.49559C54.8318 4.49559 55.0043 4.6568 55.1008 4.90631H55.1213C55.2051 4.7739 55.3226 4.66611 55.4617 4.59395C55.6007 4.52179 55.7565 4.48785 55.913 4.49559C56.4377 4.49559 56.6061 4.83854 56.6061 5.2934V7.03893C56.6061 7.04737 56.6027 7.05547 56.5967 7.06144C56.5908 7.06741 56.5827 7.07076 56.5742 7.07076H55.9058C55.8974 7.07076 55.8893 7.06741 55.8833 7.06144C55.8773 7.05547 55.874 7.04737 55.874 7.03893V5.37349C55.874 5.17635 55.6881 5.10037 55.5567 5.10037C55.4047 5.10037 55.1788 5.19688 55.1686 5.41867V7.04304C55.1687 7.04726 55.168 7.05146 55.1664 7.05539C55.1649 7.05931 55.1626 7.06288 55.1596 7.06586C55.1566 7.06885 55.153 7.07119 55.1491 7.07274C55.1452 7.07429 55.141 7.07501 55.1367 7.07487H54.4663C54.458 7.0746 54.4502 7.07113 54.4444 7.06519C54.4387 7.05925 54.4355 7.05131 54.4355 7.04304V5.37349C54.4355 5.17635 54.2383 5.10037 54.0946 5.10037C54.0003 5.09977 53.9096 5.13588 53.8416 5.20105C53.7735 5.26622 53.7335 5.35532 53.7301 5.44947V7.04304C53.7301 7.05131 53.7268 7.05925 53.7211 7.06519C53.7154 7.07113 53.7075 7.0746 53.6993 7.07487H53.0308C53.0266 7.07501 53.0223 7.07429 53.0183 7.07275C53.0143 7.07121 53.0107 7.06889 53.0076 7.06592C53.0046 7.06295 53.0021 7.05939 53.0005 7.05546C52.9988 7.05153 52.998 7.04731 52.998 7.04304Z" fill="url(#paint15_linear_1223_446)"/>
<path d="M57.0467 5.10567V4.64772C57.047 4.64048 57.0497 4.63352 57.0543 4.62795C57.059 4.62238 57.0653 4.6185 57.0724 4.61692C57.3931 4.54725 57.7197 4.5084 58.0478 4.50089C58.6937 4.50089 59.0746 4.65696 59.0746 5.35415V7.04423C59.0746 7.05267 59.0713 7.06077 59.0653 7.06674C59.0593 7.07271 59.0512 7.07606 59.0428 7.07606H58.4052C58.3983 7.07602 58.3916 7.07367 58.3862 7.06939C58.3808 7.06511 58.377 7.05915 58.3754 7.05245L58.3066 6.80294H58.3353C58.1536 7.05553 57.9123 7.12637 57.6166 7.12637C57.1422 7.12637 56.8896 6.75776 56.8896 6.32343C56.8896 5.66732 57.3691 5.53589 57.7275 5.53589H58.3436V5.36955C58.3436 5.16419 58.1895 5.11799 57.6043 5.11799C57.3568 5.11799 57.0909 5.1375 57.0796 5.1375C57.071 5.1375 57.0628 5.13418 57.0567 5.12824C57.0506 5.1223 57.047 5.1142 57.0467 5.10567ZM58.3425 5.98459H57.9421C57.7295 5.98459 57.5919 6.06571 57.5919 6.29263C57.5919 6.537 57.7675 6.59245 57.9359 6.59245C57.9906 6.59541 58.0454 6.58682 58.0965 6.56723C58.1477 6.54764 58.1942 6.51748 58.2329 6.47874C58.2717 6.43999 58.3018 6.39352 58.3214 6.34235C58.341 6.29118 58.3496 6.23645 58.3466 6.18174V5.97638L58.3425 5.98459Z" fill="url(#paint16_linear_1223_446)"/>
<path d="M59.4998 7.04314V4.57886C59.4997 4.5706 59.503 4.56265 59.5087 4.55671C59.5145 4.55077 59.5223 4.5473 59.5306 4.54703H60.1261C60.1334 4.54693 60.1406 4.54946 60.1462 4.55417C60.1519 4.55888 60.1557 4.56545 60.1569 4.5727L60.2277 4.95569H60.238C60.3125 4.81439 60.4249 4.69661 60.5625 4.61555C60.7001 4.53449 60.8576 4.49334 61.0173 4.49672C61.0258 4.49672 61.0339 4.50007 61.0398 4.50604C61.0458 4.51201 61.0492 4.52011 61.0492 4.52855V5.21444C61.0492 5.22288 61.0458 5.23098 61.0398 5.23695C61.0339 5.24292 61.0258 5.24627 61.0173 5.24627H60.8469C60.3879 5.24627 60.2308 5.43006 60.2308 5.65698V7.03903C60.2308 7.0473 60.2276 7.05524 60.2219 7.06118C60.2161 7.06712 60.2083 7.0706 60.2 7.07086H59.5336C59.5255 7.07145 59.5175 7.06891 59.5112 7.06375C59.5049 7.05859 59.5008 7.05122 59.4998 7.04314Z" fill="url(#paint17_linear_1223_446)"/>
<path d="M48.4193 5.81312C48.4193 5.01018 48.7325 4.50089 49.6207 4.50089C50.5088 4.50089 50.8271 5.01429 50.8271 5.81312C50.8271 6.61196 50.514 7.12535 49.6207 7.12535C48.7274 7.12535 48.4193 6.6212 48.4193 5.81312ZM49.2079 5.81312C49.2079 6.24745 49.2716 6.51339 49.6186 6.51339C49.9657 6.51339 50.0365 6.24745 50.0365 5.81312C50.0365 5.37879 49.9718 5.11696 49.6186 5.11696C49.2654 5.11696 49.2079 5.37879 49.2079 5.81312Z" fill="url(#paint18_linear_1223_446)"/>
<path d="M44.5684 5.56205C44.6033 4.87513 44.363 3.75183 43.7921 2.83286C43.7767 2.80925 43.7511 2.81849 43.7562 2.84313C43.7942 2.98277 43.8034 3.23639 43.5816 3.22099C43.1874 3.19429 43.595 2.35028 42.7294 1.76501C42.7262 1.76197 42.722 1.76018 42.7176 1.75998C42.7131 1.75978 42.7088 1.76117 42.7053 1.76391C42.7018 1.76665 42.6994 1.77054 42.6986 1.77489C42.6977 1.77924 42.6985 1.78375 42.7007 1.7876C42.7602 1.90055 42.7951 2.25273 42.6586 2.37287C42.5487 2.46938 42.3505 2.44371 42.1524 2.12644C42.0206 1.90758 41.9526 1.65625 41.956 1.4008C41.9595 1.14535 42.0342 0.895949 42.1719 0.68073C42.1883 0.654033 42.1657 0.643765 42.1472 0.649926C40.9562 1.04318 40.718 2.44782 40.4643 2.95916C40.4222 3.04541 40.3853 3.08956 40.3124 3.08545C40.0957 3.07108 40.2518 2.608 40.3267 2.44679C40.3284 2.44288 40.3286 2.43853 40.3274 2.43446C40.3262 2.43039 40.3237 2.42685 40.3202 2.42445C40.3167 2.42204 40.3125 2.42091 40.3083 2.42124C40.304 2.42157 40.3 2.42334 40.297 2.42626C39.6018 3.19025 39.1571 4.14874 39.0227 5.1729C39.0227 5.14928 39.0125 5.2571 39.0063 5.33616C39.0063 5.36696 39.0043 5.39811 39.0001 5.42959C39.0001 5.46656 39.0001 5.50352 39.0001 5.54152C38.994 6.28073 39.2818 6.9921 39.8002 7.51913C40.3185 8.04616 41.025 8.34569 41.7642 8.35182C42.5035 8.35794 43.2148 8.07017 43.7419 7.5518C44.2689 7.03343 44.5684 6.32693 44.5745 5.58772C44.5694 5.57848 44.5684 5.57027 44.5684 5.56205ZM41.7714 6.85682C41.5156 6.85539 41.2659 6.77807 41.054 6.63466C40.8422 6.49125 40.6776 6.28819 40.5812 6.0512C40.4848 5.81421 40.4609 5.55394 40.5125 5.30335C40.5641 5.05276 40.6889 4.82313 40.8711 4.64351C41.0533 4.4639 41.2847 4.34239 41.536 4.29438C41.7874 4.24636 42.0472 4.27399 42.2828 4.37377C42.5184 4.47356 42.7191 4.641 42.8595 4.85491C42.9998 5.06881 43.0736 5.31956 43.0713 5.5754C43.0684 5.91754 42.9299 6.24454 42.6862 6.48474C42.4425 6.72493 42.1136 6.85874 41.7714 6.85682Z" fill="url(#paint19_linear_1223_446)"/>
<path d="M70.8603 8.45605C70.8137 8.45605 70.774 8.43972 70.7413 8.40705C70.7133 8.37905 70.6993 8.34172 70.6993 8.29505V0.889053C70.6993 0.842386 70.7133 0.805053 70.7413 0.777053C70.774 0.744386 70.8137 0.728053 70.8603 0.728053H71.1333C71.18 0.728053 71.2173 0.744386 71.2453 0.777053C71.278 0.805053 71.2943 0.842386 71.2943 0.889053V8.29505C71.2943 8.34172 71.278 8.37905 71.2453 8.40705C71.2173 8.43972 71.18 8.45605 71.1333 8.45605H70.8603Z" fill="url(#paint20_linear_1223_446)"/>
<path d="M82.4982 1.58339C82.885 1.58339 83.2559 1.73703 83.5294 2.01052C83.8029 2.28401 83.9566 2.65495 83.9566 3.04172V3.91672C84.1886 3.91672 84.4112 4.00891 84.5753 4.173C84.7394 4.3371 84.8316 4.55966 84.8316 4.79172V6.54172C84.8316 6.77378 84.7394 6.99634 84.5753 7.16044C84.4112 7.32453 84.1886 7.41672 83.9566 7.41672H81.0399C80.8078 7.41672 80.5853 7.32453 80.4212 7.16044C80.2571 6.99634 80.1649 6.77378 80.1649 6.54172V4.79172C80.1649 4.55966 80.2571 4.3371 80.4212 4.173C80.5853 4.00891 80.8078 3.91672 81.0399 3.91672V3.04172C81.0399 2.65495 81.1936 2.28401 81.467 2.01052C81.7405 1.73703 82.1115 1.58339 82.4982 1.58339ZM82.4982 5.08339C82.3511 5.08334 82.2093 5.13892 82.1014 5.23899C81.9935 5.33906 81.9274 5.47622 81.9164 5.62297L81.9149 5.66672C81.9149 5.78209 81.9491 5.89487 82.0132 5.9908C82.0773 6.08673 82.1684 6.1615 82.275 6.20565C82.3816 6.2498 82.4989 6.26135 82.612 6.23884C82.7252 6.21634 82.8291 6.16078 82.9107 6.0792C82.9923 5.99762 83.0479 5.89368 83.0704 5.78052C83.0929 5.66737 83.0813 5.55008 83.0372 5.44349C82.993 5.3369 82.9183 5.24579 82.8223 5.1817C82.7264 5.1176 82.6136 5.08339 82.4982 5.08339ZM82.4982 2.16672C82.2662 2.16672 82.0436 2.25891 81.8795 2.423C81.7154 2.5871 81.6232 2.80966 81.6232 3.04172V3.91672H83.3732V3.04172C83.3732 2.80966 83.2811 2.5871 83.117 2.423C82.9529 2.25891 82.7303 2.16672 82.4982 2.16672Z" fill="url(#paint21_linear_1223_446)"/>
<path d="M89.5356 6.50005C89.509 6.50005 89.4856 6.49005 89.4656 6.47005C89.4456 6.45005 89.4356 6.42672 89.4356 6.40005C89.4356 6.38339 89.4373 6.36505 89.4406 6.34505L90.6806 3.11005C90.694 3.07672 90.7123 3.05005 90.7356 3.03005C90.759 3.01005 90.794 3.00005 90.8406 3.00005H91.1806C91.224 3.00005 91.2573 3.01005 91.2806 3.03005C91.3073 3.05005 91.3273 3.07672 91.3406 3.11005L92.5756 6.34505C92.5823 6.36505 92.5856 6.38339 92.5856 6.40005C92.5856 6.42672 92.5756 6.45005 92.5556 6.47005C92.5356 6.49005 92.5123 6.50005 92.4856 6.50005H92.2306C92.1906 6.50005 92.1606 6.49005 92.1406 6.47005C92.124 6.45005 92.1123 6.43172 92.1056 6.41505L91.8306 5.70505H90.1906L89.9156 6.41505C89.9123 6.43172 89.9006 6.45005 89.8806 6.47005C89.8606 6.49005 89.8306 6.50005 89.7906 6.50005H89.5356ZM90.3356 5.27505H91.6856L91.0106 3.50005L90.3356 5.27505Z" fill="url(#paint22_linear_1223_446)"/>
<path d="M93.1702 6.50005C93.1369 6.50005 93.1086 6.49005 93.0853 6.47005C93.0653 6.44672 93.0553 6.41839 93.0553 6.38505V4.01505C93.0553 3.98172 93.0653 3.95505 93.0853 3.93505C93.1086 3.91172 93.1369 3.90005 93.1702 3.90005H93.3953C93.4286 3.90005 93.4553 3.91172 93.4753 3.93505C93.4986 3.95505 93.5103 3.98172 93.5103 4.01505V4.19005C93.5869 4.08672 93.6836 4.00505 93.8003 3.94505C93.9169 3.88172 94.0569 3.85005 94.2203 3.85005C94.5969 3.84672 94.8636 4.00005 95.0203 4.31005C95.0969 4.17005 95.2086 4.05839 95.3553 3.97505C95.5019 3.89172 95.6686 3.85005 95.8553 3.85005C96.0286 3.85005 96.1853 3.89005 96.3253 3.97005C96.4686 4.05005 96.5803 4.17172 96.6603 4.33505C96.7436 4.49505 96.7853 4.69672 96.7853 4.94005V6.38505C96.7853 6.41839 96.7736 6.44672 96.7503 6.47005C96.7303 6.49005 96.7036 6.50005 96.6702 6.50005H96.4352C96.4019 6.50005 96.3736 6.49005 96.3503 6.47005C96.3303 6.44672 96.3203 6.41839 96.3203 6.38505V4.98505C96.3203 4.79839 96.2936 4.65172 96.2402 4.54505C96.1869 4.43839 96.1153 4.36339 96.0253 4.32005C95.9353 4.27672 95.8369 4.25505 95.7303 4.25505C95.6436 4.25505 95.5553 4.27672 95.4653 4.32005C95.3753 4.36339 95.3002 4.43839 95.2402 4.54505C95.1836 4.65172 95.1553 4.79839 95.1553 4.98505V6.38505C95.1553 6.41839 95.1436 6.44672 95.1203 6.47005C95.1003 6.49005 95.0736 6.50005 95.0403 6.50005H94.8053C94.7719 6.50005 94.7436 6.49005 94.7203 6.47005C94.7003 6.44672 94.6903 6.41839 94.6903 6.38505V4.98505C94.6903 4.79839 94.6619 4.65172 94.6053 4.54505C94.5486 4.43839 94.4753 4.36339 94.3853 4.32005C94.2953 4.27672 94.2003 4.25505 94.1003 4.25505C94.0136 4.25505 93.9253 4.27672 93.8353 4.32005C93.7453 4.36339 93.6703 4.43839 93.6103 4.54505C93.5536 4.65172 93.5253 4.79672 93.5253 4.98005V6.38505C93.5253 6.41839 93.5136 6.44672 93.4902 6.47005C93.4702 6.49005 93.4436 6.50005 93.4103 6.50005H93.1702Z" fill="url(#paint23_linear_1223_446)"/>
<path d="M98.7836 6.55005C98.5836 6.55005 98.4169 6.51505 98.2836 6.44505C98.1503 6.37172 98.0436 6.28172 97.9636 6.17505V6.38505C97.9636 6.41839 97.9519 6.44672 97.9286 6.47005C97.9086 6.49005 97.8819 6.50005 97.8486 6.50005H97.6186C97.5853 6.50005 97.5569 6.49005 97.5336 6.47005C97.5136 6.44672 97.5036 6.41839 97.5036 6.38505V3.06505C97.5036 3.03172 97.5136 3.00505 97.5336 2.98505C97.5569 2.96172 97.5853 2.95005 97.6186 2.95005H97.8586C97.8953 2.95005 97.9236 2.96172 97.9436 2.98505C97.9636 3.00505 97.9736 3.03172 97.9736 3.06505V4.21505C98.0569 4.11172 98.1636 4.02505 98.2936 3.95505C98.4269 3.88505 98.5903 3.85005 98.7836 3.85005C98.9703 3.85005 99.1286 3.88339 99.2586 3.95005C99.3919 4.01339 99.5003 4.10172 99.5836 4.21505C99.6703 4.32839 99.7353 4.45672 99.7786 4.60005C99.8219 4.74339 99.8453 4.89339 99.8486 5.05005C99.8519 5.10339 99.8536 5.15339 99.8536 5.20005C99.8536 5.24672 99.8519 5.29672 99.8486 5.35005C99.8453 5.51005 99.8219 5.66172 99.7786 5.80505C99.7353 5.94839 99.6703 6.07672 99.5836 6.19005C99.5003 6.30005 99.3919 6.38839 99.2586 6.45505C99.1286 6.51839 98.9703 6.55005 98.7836 6.55005ZM98.6786 6.14505C98.8519 6.14505 98.9869 6.10839 99.0836 6.03505C99.1836 5.95839 99.2553 5.86005 99.2986 5.74005C99.3419 5.61672 99.3669 5.48505 99.3736 5.34505C99.3769 5.24839 99.3769 5.15172 99.3736 5.05505C99.3669 4.91505 99.3419 4.78505 99.2986 4.66505C99.2553 4.54172 99.1836 4.44339 99.0836 4.37005C98.9869 4.29339 98.8519 4.25505 98.6786 4.25505C98.5219 4.25505 98.3919 4.29172 98.2886 4.36505C98.1853 4.43839 98.1069 4.53172 98.0536 4.64505C98.0036 4.75839 97.9769 4.87339 97.9736 4.99005C97.9703 5.04339 97.9686 5.10839 97.9686 5.18505C97.9686 5.25839 97.9703 5.32172 97.9736 5.37505C97.9803 5.49839 98.0069 5.62005 98.0536 5.74005C98.1036 5.85672 98.1786 5.95339 98.2786 6.03005C98.3819 6.10672 98.5153 6.14505 98.6786 6.14505Z" fill="url(#paint24_linear_1223_446)"/>
<path d="M100.587 6.50005C100.554 6.50005 100.526 6.49005 100.502 6.47005C100.482 6.44672 100.472 6.41839 100.472 6.38505V4.01505C100.472 3.98172 100.482 3.95505 100.502 3.93505C100.526 3.91172 100.554 3.90005 100.587 3.90005H100.827C100.861 3.90005 100.887 3.91172 100.907 3.93505C100.927 3.95505 100.937 3.98172 100.937 4.01505V6.38505C100.937 6.41839 100.927 6.44672 100.907 6.47005C100.887 6.49005 100.861 6.50005 100.827 6.50005H100.587ZM100.547 3.41505C100.514 3.41505 100.486 3.40505 100.462 3.38505C100.442 3.36172 100.432 3.33339 100.432 3.30005V3.03005C100.432 2.99672 100.442 2.97005 100.462 2.95005C100.486 2.92672 100.514 2.91505 100.547 2.91505H100.862C100.896 2.91505 100.922 2.92672 100.942 2.95005C100.966 2.97005 100.977 2.99672 100.977 3.03005V3.30005C100.977 3.33339 100.966 3.36172 100.942 3.38505C100.922 3.40505 100.896 3.41505 100.862 3.41505H100.547Z" fill="url(#paint25_linear_1223_446)"/>
<path d="M102.718 6.55005C102.375 6.55005 102.102 6.44505 101.898 6.23505C101.695 6.02172 101.583 5.73172 101.563 5.36505C101.56 5.32172 101.558 5.26672 101.558 5.20005C101.558 5.13005 101.56 5.07339 101.563 5.03005C101.577 4.79339 101.632 4.58672 101.728 4.41005C101.825 4.23005 101.957 4.09172 102.123 3.99505C102.293 3.89839 102.492 3.85005 102.718 3.85005C102.972 3.85005 103.183 3.90339 103.353 4.01005C103.527 4.11672 103.658 4.26839 103.748 4.46505C103.838 4.66172 103.883 4.89172 103.883 5.15505V5.24005C103.883 5.27672 103.872 5.30505 103.848 5.32505C103.828 5.34505 103.802 5.35505 103.768 5.35505H102.038C102.038 5.35839 102.038 5.36505 102.038 5.37505C102.038 5.38505 102.038 5.39339 102.038 5.40005C102.045 5.53672 102.075 5.66505 102.128 5.78505C102.182 5.90172 102.258 5.99672 102.358 6.07005C102.458 6.14339 102.578 6.18005 102.718 6.18005C102.838 6.18005 102.938 6.16172 103.018 6.12505C103.098 6.08839 103.163 6.04839 103.213 6.00505C103.263 5.95839 103.297 5.92339 103.313 5.90005C103.343 5.85672 103.367 5.83172 103.383 5.82505C103.4 5.81505 103.427 5.81005 103.463 5.81005H103.703C103.737 5.81005 103.763 5.82005 103.783 5.84005C103.807 5.85672 103.817 5.88172 103.813 5.91505C103.81 5.96505 103.783 6.02672 103.733 6.10005C103.683 6.17005 103.612 6.24005 103.518 6.31005C103.425 6.38005 103.312 6.43839 103.178 6.48505C103.045 6.52839 102.892 6.55005 102.718 6.55005ZM102.038 5.01005H103.408V4.99505C103.408 4.84505 103.38 4.71172 103.323 4.59505C103.27 4.47839 103.192 4.38672 103.088 4.32005C102.985 4.25005 102.862 4.21505 102.718 4.21505C102.575 4.21505 102.452 4.25005 102.348 4.32005C102.248 4.38672 102.172 4.47839 102.118 4.59505C102.065 4.71172 102.038 4.84505 102.038 4.99505V5.01005Z" fill="url(#paint26_linear_1223_446)"/>
<path d="M104.596 6.50005C104.563 6.50005 104.534 6.49005 104.511 6.47005C104.491 6.44672 104.481 6.41839 104.481 6.38505V4.01505C104.481 3.98172 104.491 3.95505 104.511 3.93505C104.534 3.91172 104.563 3.90005 104.596 3.90005H104.831C104.864 3.90005 104.891 3.91172 104.911 3.93505C104.934 3.95505 104.946 3.98172 104.946 4.01505V4.23505C105.033 4.12172 105.141 4.03005 105.271 3.96005C105.404 3.88672 105.574 3.85005 105.781 3.85005C105.998 3.85005 106.181 3.89839 106.331 3.99505C106.484 4.08839 106.599 4.22005 106.676 4.39005C106.753 4.55672 106.791 4.75172 106.791 4.97505V6.38505C106.791 6.41839 106.781 6.44672 106.761 6.47005C106.741 6.49005 106.714 6.50005 106.681 6.50005H106.431C106.398 6.50005 106.369 6.49005 106.346 6.47005C106.326 6.44672 106.316 6.41839 106.316 6.38505V5.00005C106.316 4.76672 106.259 4.58505 106.146 4.45505C106.033 4.32172 105.866 4.25505 105.646 4.25505C105.439 4.25505 105.273 4.32172 105.146 4.45505C105.023 4.58505 104.961 4.76672 104.961 5.00005V6.38505C104.961 6.41839 104.949 6.44672 104.926 6.47005C104.906 6.49005 104.879 6.50005 104.846 6.50005H104.596Z" fill="url(#paint27_linear_1223_446)"/>
<path d="M108.494 6.50005C108.307 6.50005 108.156 6.46505 108.039 6.39505C107.922 6.32172 107.837 6.22005 107.784 6.09005C107.731 5.95672 107.704 5.80005 107.704 5.62005V4.30005H107.314C107.281 4.30005 107.252 4.29005 107.229 4.27005C107.209 4.24672 107.199 4.21839 107.199 4.18505V4.01505C107.199 3.98172 107.209 3.95505 107.229 3.93505C107.252 3.91172 107.281 3.90005 107.314 3.90005H107.704V3.06505C107.704 3.03172 107.714 3.00505 107.734 2.98505C107.757 2.96172 107.786 2.95005 107.819 2.95005H108.054C108.087 2.95005 108.114 2.96172 108.134 2.98505C108.157 3.00505 108.169 3.03172 108.169 3.06505V3.90005H108.789C108.822 3.90005 108.849 3.91172 108.869 3.93505C108.892 3.95505 108.904 3.98172 108.904 4.01505V4.18505C108.904 4.21839 108.892 4.24672 108.869 4.27005C108.849 4.29005 108.822 4.30005 108.789 4.30005H108.169V5.58505C108.169 5.74172 108.196 5.86505 108.249 5.95505C108.302 6.04505 108.397 6.09005 108.534 6.09005H108.839C108.872 6.09005 108.899 6.10172 108.919 6.12505C108.942 6.14505 108.954 6.17172 108.954 6.20505V6.38505C108.954 6.41839 108.942 6.44672 108.919 6.47005C108.899 6.49005 108.872 6.50005 108.839 6.50005H108.494Z" fill="url(#paint28_linear_1223_446)"/>
<path d="M110.467 6.55005C110.124 6.55005 109.851 6.44505 109.647 6.23505C109.444 6.02172 109.332 5.73172 109.312 5.36505C109.309 5.32172 109.307 5.26672 109.307 5.20005C109.307 5.13005 109.309 5.07339 109.312 5.03005C109.326 4.79339 109.381 4.58672 109.477 4.41005C109.574 4.23005 109.706 4.09172 109.872 3.99505C110.042 3.89839 110.241 3.85005 110.467 3.85005C110.721 3.85005 110.932 3.90339 111.102 4.01005C111.276 4.11672 111.407 4.26839 111.497 4.46505C111.587 4.66172 111.632 4.89172 111.632 5.15505V5.24005C111.632 5.27672 111.621 5.30505 111.597 5.32505C111.577 5.34505 111.551 5.35505 111.517 5.35505H109.787C109.787 5.35839 109.787 5.36505 109.787 5.37505C109.787 5.38505 109.787 5.39339 109.787 5.40005C109.794 5.53672 109.824 5.66505 109.877 5.78505C109.931 5.90172 110.007 5.99672 110.107 6.07005C110.207 6.14339 110.327 6.18005 110.467 6.18005C110.587 6.18005 110.687 6.16172 110.767 6.12505C110.847 6.08839 110.912 6.04839 110.962 6.00505C111.012 5.95839 111.046 5.92339 111.062 5.90005C111.092 5.85672 111.116 5.83172 111.132 5.82505C111.149 5.81505 111.176 5.81005 111.212 5.81005H111.452C111.486 5.81005 111.512 5.82005 111.532 5.84005C111.556 5.85672 111.566 5.88172 111.562 5.91505C111.559 5.96505 111.532 6.02672 111.482 6.10005C111.432 6.17005 111.361 6.24005 111.267 6.31005C111.174 6.38005 111.061 6.43839 110.927 6.48505C110.794 6.52839 110.641 6.55005 110.467 6.55005ZM109.787 5.01005H111.157V4.99505C111.157 4.84505 111.129 4.71172 111.072 4.59505C111.019 4.47839 110.941 4.38672 110.837 4.32005C110.734 4.25005 110.611 4.21505 110.467 4.21505C110.324 4.21505 110.201 4.25005 110.097 4.32005C109.997 4.38672 109.921 4.47839 109.867 4.59505C109.814 4.71172 109.787 4.84505 109.787 4.99505V5.01005Z" fill="url(#paint29_linear_1223_446)"/>
<path d="M114.466 6.50005C114.432 6.50005 114.404 6.49005 114.381 6.47005C114.361 6.44672 114.351 6.41839 114.351 6.38505V3.58505L113.521 4.22505C113.494 4.24505 113.466 4.25339 113.436 4.25005C113.406 4.24672 113.381 4.23172 113.361 4.20505L113.231 4.04005C113.211 4.01005 113.202 3.98005 113.206 3.95005C113.212 3.92005 113.229 3.89505 113.256 3.87505L114.346 3.03505C114.369 3.01839 114.391 3.00839 114.411 3.00505C114.431 3.00172 114.452 3.00005 114.476 3.00005H114.731C114.764 3.00005 114.791 3.01172 114.811 3.03505C114.831 3.05505 114.841 3.08172 114.841 3.11505V6.38505C114.841 6.41839 114.831 6.44672 114.811 6.47005C114.791 6.49005 114.764 6.50005 114.731 6.50005H114.466Z" fill="url(#paint30_linear_1223_446)"/>
<path d="M116.809 6.55005C116.579 6.55005 116.384 6.51505 116.224 6.44505C116.068 6.37172 115.939 6.27172 115.839 6.14505C115.739 6.01839 115.666 5.87339 115.619 5.71005C115.576 5.54672 115.551 5.37339 115.544 5.19005C115.541 5.10005 115.538 5.00505 115.534 4.90505C115.534 4.80505 115.534 4.70505 115.534 4.60505C115.538 4.50172 115.541 4.40339 115.544 4.31005C115.548 4.12672 115.573 3.95339 115.619 3.79005C115.669 3.62339 115.743 3.47839 115.839 3.35505C115.939 3.22839 116.069 3.13005 116.229 3.06005C116.389 2.98672 116.583 2.95005 116.809 2.95005C117.039 2.95005 117.233 2.98672 117.389 3.06005C117.549 3.13005 117.679 3.22839 117.779 3.35505C117.879 3.47839 117.953 3.62339 117.999 3.79005C118.049 3.95339 118.076 4.12672 118.079 4.31005C118.083 4.40339 118.084 4.50172 118.084 4.60505C118.088 4.70505 118.088 4.80505 118.084 4.90505C118.084 5.00505 118.083 5.10005 118.079 5.19005C118.076 5.37339 118.049 5.54672 117.999 5.71005C117.953 5.87339 117.879 6.01839 117.779 6.14505C117.683 6.27172 117.554 6.37172 117.394 6.44505C117.238 6.51505 117.043 6.55005 116.809 6.55005ZM116.809 6.12505C117.069 6.12505 117.261 6.04005 117.384 5.87005C117.511 5.69672 117.576 5.46172 117.579 5.16505C117.586 5.06839 117.589 4.97505 117.589 4.88505C117.589 4.79172 117.589 4.70005 117.589 4.61005C117.589 4.51672 117.586 4.42505 117.579 4.33505C117.576 4.04505 117.511 3.81339 117.384 3.64005C117.261 3.46339 117.069 3.37505 116.809 3.37505C116.553 3.37505 116.361 3.46339 116.234 3.64005C116.111 3.81339 116.046 4.04505 116.039 4.33505C116.039 4.42505 116.038 4.51672 116.034 4.61005C116.034 4.70005 116.034 4.79172 116.034 4.88505C116.038 4.97505 116.039 5.06839 116.039 5.16505C116.046 5.46172 116.113 5.69672 116.239 5.87005C116.366 6.04005 116.556 6.12505 116.809 6.12505Z" fill="url(#paint31_linear_1223_446)"/>
<path d="M119.983 6.55005C119.753 6.55005 119.558 6.51505 119.398 6.44505C119.241 6.37172 119.113 6.27172 119.013 6.14505C118.913 6.01839 118.84 5.87339 118.793 5.71005C118.75 5.54672 118.725 5.37339 118.718 5.19005C118.715 5.10005 118.711 5.00505 118.708 4.90505C118.708 4.80505 118.708 4.70505 118.708 4.60505C118.711 4.50172 118.715 4.40339 118.718 4.31005C118.721 4.12672 118.746 3.95339 118.793 3.79005C118.843 3.62339 118.916 3.47839 119.013 3.35505C119.113 3.22839 119.243 3.13005 119.403 3.06005C119.563 2.98672 119.756 2.95005 119.983 2.95005C120.213 2.95005 120.406 2.98672 120.563 3.06005C120.723 3.13005 120.853 3.22839 120.953 3.35505C121.053 3.47839 121.126 3.62339 121.173 3.79005C121.223 3.95339 121.25 4.12672 121.253 4.31005C121.256 4.40339 121.258 4.50172 121.258 4.60505C121.261 4.70505 121.261 4.80505 121.258 4.90505C121.258 5.00505 121.256 5.10005 121.253 5.19005C121.25 5.37339 121.223 5.54672 121.173 5.71005C121.126 5.87339 121.053 6.01839 120.953 6.14505C120.856 6.27172 120.728 6.37172 120.568 6.44505C120.411 6.51505 120.216 6.55005 119.983 6.55005ZM119.983 6.12505C120.243 6.12505 120.435 6.04005 120.558 5.87005C120.685 5.69672 120.75 5.46172 120.753 5.16505C120.76 5.06839 120.763 4.97505 120.763 4.88505C120.763 4.79172 120.763 4.70005 120.763 4.61005C120.763 4.51672 120.76 4.42505 120.753 4.33505C120.75 4.04505 120.685 3.81339 120.558 3.64005C120.435 3.46339 120.243 3.37505 119.983 3.37505C119.726 3.37505 119.535 3.46339 119.408 3.64005C119.285 3.81339 119.22 4.04505 119.213 4.33505C119.213 4.42505 119.211 4.51672 119.208 4.61005C119.208 4.70005 119.208 4.79172 119.208 4.88505C119.211 4.97505 119.213 5.06839 119.213 5.16505C119.22 5.46172 119.286 5.69672 119.413 5.87005C119.54 6.04005 119.73 6.12505 119.983 6.12505Z" fill="url(#paint32_linear_1223_446)"/>
<path d="M122.117 6.50005C122.047 6.50005 122.012 6.46672 122.012 6.40005C122.012 6.38005 122.019 6.36172 122.032 6.34505L124.502 3.09505C124.525 3.06505 124.547 3.04172 124.567 3.02505C124.59 3.00839 124.624 3.00005 124.667 3.00005H124.832C124.902 3.00005 124.937 3.03339 124.937 3.10005C124.937 3.12005 124.93 3.13839 124.917 3.15505L122.452 6.40505C122.429 6.43505 122.405 6.45839 122.382 6.47505C122.362 6.49172 122.329 6.50005 122.282 6.50005H122.117ZM124.407 6.53005C124.187 6.53005 124.015 6.46839 123.892 6.34505C123.769 6.22172 123.7 6.06005 123.687 5.86005C123.684 5.77339 123.682 5.70005 123.682 5.64005C123.682 5.57672 123.684 5.49839 123.687 5.40505C123.697 5.20505 123.762 5.04339 123.882 4.92005C124.002 4.79339 124.177 4.73005 124.407 4.73005C124.64 4.73005 124.815 4.79339 124.932 4.92005C125.052 5.04339 125.119 5.20505 125.132 5.40505C125.139 5.49839 125.142 5.57672 125.142 5.64005C125.142 5.70005 125.139 5.77339 125.132 5.86005C125.119 6.06005 125.049 6.22172 124.922 6.34505C124.799 6.46839 124.627 6.53005 124.407 6.53005ZM124.407 6.20005C124.494 6.20005 124.562 6.18172 124.612 6.14505C124.665 6.10839 124.704 6.06339 124.727 6.01005C124.75 5.95339 124.764 5.89672 124.767 5.84005C124.774 5.75005 124.777 5.68005 124.777 5.63005C124.777 5.57672 124.774 5.50839 124.767 5.42505C124.764 5.33505 124.735 5.25172 124.682 5.17505C124.629 5.09839 124.537 5.06005 124.407 5.06005C124.28 5.06005 124.19 5.09839 124.137 5.17505C124.087 5.25172 124.059 5.33505 124.052 5.42505C124.049 5.50839 124.047 5.57672 124.047 5.63005C124.047 5.68005 124.049 5.75005 124.052 5.84005C124.059 5.89672 124.072 5.95339 124.092 6.01005C124.115 6.06339 124.152 6.10839 124.202 6.14505C124.255 6.18172 124.324 6.20005 124.407 6.20005ZM122.537 4.75505C122.317 4.75505 122.145 4.69672 122.022 4.58005C121.899 4.46339 121.83 4.30505 121.817 4.10505C121.814 4.01839 121.812 3.94505 121.812 3.88505C121.812 3.82172 121.814 3.74339 121.817 3.65005C121.827 3.45005 121.892 3.28839 122.012 3.16505C122.132 3.03839 122.307 2.97505 122.537 2.97505C122.77 2.97505 122.945 3.03839 123.062 3.16505C123.182 3.28839 123.247 3.45005 123.257 3.65005C123.264 3.74339 123.267 3.82172 123.267 3.88505C123.267 3.94505 123.264 4.01839 123.257 4.10505C123.247 4.30505 123.179 4.46339 123.052 4.58005C122.929 4.69672 122.757 4.75505 122.537 4.75505ZM122.537 4.44505C122.624 4.44505 122.692 4.42672 122.742 4.39005C122.795 4.35339 122.834 4.30839 122.857 4.25505C122.88 4.19839 122.894 4.14172 122.897 4.08505C122.904 3.99505 122.907 3.92505 122.907 3.87505C122.907 3.82172 122.904 3.75339 122.897 3.67005C122.894 3.58005 122.864 3.49672 122.807 3.42005C122.754 3.34339 122.664 3.30505 122.537 3.30505C122.41 3.30505 122.32 3.34339 122.267 3.42005C122.217 3.49672 122.189 3.58005 122.182 3.67005C122.179 3.75339 122.177 3.82172 122.177 3.87505C122.177 3.92505 122.179 3.99505 122.182 4.08505C122.189 4.14172 122.202 4.19839 122.222 4.25505C122.245 4.30839 122.282 4.35339 122.332 4.39005C122.382 4.42672 122.45 4.44505 122.537 4.44505Z" fill="url(#paint33_linear_1223_446)"/>
<path d="M127.871 6.55005C127.685 6.55005 127.525 6.52672 127.391 6.48005C127.258 6.43339 127.15 6.37672 127.066 6.31005C126.983 6.24339 126.92 6.17672 126.876 6.11005C126.836 6.04339 126.815 5.99005 126.811 5.95005C126.808 5.91339 126.82 5.88505 126.846 5.86505C126.873 5.84505 126.9 5.83505 126.926 5.83505H127.146C127.166 5.83505 127.181 5.83839 127.191 5.84505C127.205 5.84839 127.221 5.86172 127.241 5.88505C127.285 5.93172 127.333 5.97839 127.386 6.02505C127.44 6.07172 127.505 6.11005 127.581 6.14005C127.661 6.17005 127.76 6.18505 127.876 6.18505C128.046 6.18505 128.186 6.15339 128.296 6.09005C128.406 6.02339 128.461 5.92672 128.461 5.80005C128.461 5.71672 128.438 5.65005 128.391 5.60005C128.348 5.55005 128.268 5.50505 128.151 5.46505C128.038 5.42505 127.881 5.38339 127.681 5.34005C127.481 5.29339 127.323 5.23672 127.206 5.17005C127.09 5.10005 127.006 5.01839 126.956 4.92505C126.906 4.82839 126.881 4.72005 126.881 4.60005C126.881 4.47672 126.918 4.35839 126.991 4.24505C127.065 4.12839 127.171 4.03339 127.311 3.96005C127.455 3.88672 127.633 3.85005 127.846 3.85005C128.02 3.85005 128.168 3.87172 128.291 3.91505C128.415 3.95839 128.516 4.01339 128.596 4.08005C128.676 4.14339 128.736 4.20672 128.776 4.27005C128.816 4.33339 128.838 4.38672 128.841 4.43005C128.845 4.46339 128.835 4.49172 128.811 4.51505C128.788 4.53505 128.761 4.54505 128.731 4.54505H128.521C128.498 4.54505 128.478 4.54005 128.461 4.53005C128.448 4.52005 128.435 4.50839 128.421 4.49505C128.388 4.45172 128.348 4.40839 128.301 4.36505C128.258 4.32172 128.2 4.28672 128.126 4.26005C128.056 4.23005 127.963 4.21505 127.846 4.21505C127.68 4.21505 127.555 4.25005 127.471 4.32005C127.388 4.39005 127.346 4.47839 127.346 4.58505C127.346 4.64839 127.365 4.70505 127.401 4.75505C127.438 4.80505 127.508 4.85005 127.611 4.89005C127.715 4.93005 127.868 4.97339 128.071 5.02005C128.291 5.06339 128.465 5.12172 128.591 5.19505C128.718 5.26839 128.808 5.35339 128.861 5.45005C128.915 5.54672 128.941 5.65839 128.941 5.78505C128.941 5.92505 128.9 6.05339 128.816 6.17005C128.736 6.28672 128.616 6.38005 128.456 6.45005C128.3 6.51672 128.105 6.55005 127.871 6.55005Z" fill="url(#paint34_linear_1223_446)"/>
<path d="M130.555 6.55005C130.212 6.55005 129.938 6.44505 129.735 6.23505C129.532 6.02172 129.42 5.73172 129.4 5.36505C129.397 5.32172 129.395 5.26672 129.395 5.20005C129.395 5.13005 129.397 5.07339 129.4 5.03005C129.413 4.79339 129.468 4.58672 129.565 4.41005C129.662 4.23005 129.793 4.09172 129.96 3.99505C130.13 3.89839 130.328 3.85005 130.555 3.85005C130.808 3.85005 131.02 3.90339 131.19 4.01005C131.363 4.11672 131.495 4.26839 131.585 4.46505C131.675 4.66172 131.72 4.89172 131.72 5.15505V5.24005C131.72 5.27672 131.708 5.30505 131.685 5.32505C131.665 5.34505 131.638 5.35505 131.605 5.35505H129.875C129.875 5.35839 129.875 5.36505 129.875 5.37505C129.875 5.38505 129.875 5.39339 129.875 5.40005C129.882 5.53672 129.912 5.66505 129.965 5.78505C130.018 5.90172 130.095 5.99672 130.195 6.07005C130.295 6.14339 130.415 6.18005 130.555 6.18005C130.675 6.18005 130.775 6.16172 130.855 6.12505C130.935 6.08839 131 6.04839 131.05 6.00505C131.1 5.95839 131.133 5.92339 131.15 5.90005C131.18 5.85672 131.203 5.83172 131.22 5.82505C131.237 5.81505 131.263 5.81005 131.3 5.81005H131.54C131.573 5.81005 131.6 5.82005 131.62 5.84005C131.643 5.85672 131.653 5.88172 131.65 5.91505C131.647 5.96505 131.62 6.02672 131.57 6.10005C131.52 6.17005 131.448 6.24005 131.355 6.31005C131.262 6.38005 131.148 6.43839 131.015 6.48505C130.882 6.52839 130.728 6.55005 130.555 6.55005ZM129.875 5.01005H131.245V4.99505C131.245 4.84505 131.217 4.71172 131.16 4.59505C131.107 4.47839 131.028 4.38672 130.925 4.32005C130.822 4.25005 130.698 4.21505 130.555 4.21505C130.412 4.21505 130.288 4.25005 130.185 4.32005C130.085 4.38672 130.008 4.47839 129.955 4.59505C129.902 4.71172 129.875 4.84505 129.875 4.99505V5.01005Z" fill="url(#paint35_linear_1223_446)"/>
<path d="M133.383 7.60005C133.156 7.60005 132.97 7.57005 132.823 7.51005C132.68 7.45005 132.566 7.37672 132.483 7.29005C132.403 7.20672 132.345 7.12172 132.308 7.03505C132.275 6.95172 132.256 6.88505 132.253 6.83505C132.25 6.80172 132.26 6.77339 132.283 6.75005C132.31 6.72672 132.338 6.71505 132.368 6.71505H132.608C132.638 6.71505 132.663 6.72172 132.683 6.73505C132.703 6.74839 132.72 6.77672 132.733 6.82005C132.753 6.87005 132.783 6.92505 132.823 6.98505C132.863 7.04839 132.925 7.10172 133.008 7.14505C133.091 7.19172 133.208 7.21505 133.358 7.21505C133.515 7.21505 133.646 7.19339 133.753 7.15005C133.86 7.11005 133.94 7.03672 133.993 6.93005C134.05 6.82672 134.078 6.68339 134.078 6.50005V6.16005C133.998 6.26339 133.893 6.35005 133.763 6.42005C133.633 6.48672 133.47 6.52005 133.273 6.52005C133.086 6.52005 132.926 6.48839 132.793 6.42505C132.66 6.35839 132.55 6.27005 132.463 6.16005C132.38 6.04672 132.316 5.91839 132.273 5.77505C132.233 5.63172 132.21 5.48172 132.203 5.32505C132.2 5.23172 132.2 5.14005 132.203 5.05005C132.21 4.89339 132.233 4.74339 132.273 4.60005C132.316 4.45672 132.38 4.32839 132.463 4.21505C132.55 4.10172 132.66 4.01339 132.793 3.95005C132.926 3.88339 133.086 3.85005 133.273 3.85005C133.473 3.85005 133.638 3.88839 133.768 3.96505C133.901 4.03839 134.01 4.12839 134.093 4.23505V4.02005C134.093 3.98672 134.103 3.95839 134.123 3.93505C134.146 3.91172 134.175 3.90005 134.208 3.90005H134.438C134.471 3.90005 134.5 3.91172 134.523 3.93505C134.546 3.95839 134.558 3.98672 134.558 4.02005V6.44505C134.558 6.66839 134.52 6.86672 134.443 7.04005C134.37 7.21339 134.246 7.35005 134.073 7.45005C133.903 7.55005 133.673 7.60005 133.383 7.60005ZM133.373 6.12005C133.54 6.12005 133.673 6.08172 133.773 6.00505C133.876 5.92839 133.951 5.83172 133.998 5.71505C134.048 5.59839 134.075 5.48005 134.078 5.36005C134.081 5.31339 134.083 5.25672 134.083 5.19005C134.083 5.12005 134.081 5.06172 134.078 5.01505C134.075 4.89505 134.048 4.77672 133.998 4.66005C133.951 4.54339 133.876 4.44672 133.773 4.37005C133.673 4.29339 133.54 4.25505 133.373 4.25505C133.206 4.25505 133.073 4.29339 132.973 4.37005C132.873 4.44339 132.801 4.54172 132.758 4.66505C132.715 4.78505 132.69 4.91505 132.683 5.05505C132.68 5.14172 132.68 5.23005 132.683 5.32005C132.69 5.46005 132.715 5.59172 132.758 5.71505C132.801 5.83505 132.873 5.93339 132.973 6.01005C133.073 6.08339 133.206 6.12005 133.373 6.12005Z" fill="url(#paint36_linear_1223_446)"/>
<path d="M136.271 6.55005C136.058 6.55005 135.876 6.50339 135.726 6.41005C135.58 6.31339 135.468 6.18005 135.391 6.01005C135.315 5.84005 135.276 5.64505 135.276 5.42505V4.01505C135.276 3.98172 135.286 3.95505 135.306 3.93505C135.33 3.91172 135.358 3.90005 135.391 3.90005H135.641C135.675 3.90005 135.701 3.91172 135.721 3.93505C135.745 3.95505 135.756 3.98172 135.756 4.01505V5.40005C135.756 5.89672 135.973 6.14505 136.406 6.14505C136.613 6.14505 136.778 6.08005 136.901 5.95005C137.028 5.81672 137.091 5.63339 137.091 5.40005V4.01505C137.091 3.98172 137.101 3.95505 137.121 3.93505C137.145 3.91172 137.173 3.90005 137.206 3.90005H137.451C137.488 3.90005 137.516 3.91172 137.536 3.93505C137.556 3.95505 137.566 3.98172 137.566 4.01505V6.38505C137.566 6.41839 137.556 6.44672 137.536 6.47005C137.516 6.49005 137.488 6.50005 137.451 6.50005H137.221C137.188 6.50005 137.16 6.49005 137.136 6.47005C137.116 6.44672 137.106 6.41839 137.106 6.38505V6.16505C137.016 6.28172 136.906 6.37505 136.776 6.44505C136.65 6.51505 136.481 6.55005 136.271 6.55005Z" fill="url(#paint37_linear_1223_446)"/>
<path d="M138.424 6.50005C138.391 6.50005 138.362 6.49005 138.339 6.47005C138.319 6.44672 138.309 6.41839 138.309 6.38505V4.02005C138.309 3.98672 138.319 3.95839 138.339 3.93505C138.362 3.91172 138.391 3.90005 138.424 3.90005H138.654C138.687 3.90005 138.716 3.91172 138.739 3.93505C138.762 3.95839 138.774 3.98672 138.774 4.02005V4.24005C138.841 4.12672 138.932 4.04172 139.049 3.98505C139.166 3.92839 139.306 3.90005 139.469 3.90005H139.669C139.702 3.90005 139.729 3.91172 139.749 3.93505C139.769 3.95505 139.779 3.98172 139.779 4.01505V4.22005C139.779 4.25339 139.769 4.28005 139.749 4.30005C139.729 4.32005 139.702 4.33005 139.669 4.33005H139.369C139.189 4.33005 139.047 4.38339 138.944 4.49005C138.841 4.59339 138.789 4.73505 138.789 4.91505V6.38505C138.789 6.41839 138.777 6.44672 138.754 6.47005C138.731 6.49005 138.702 6.50005 138.669 6.50005H138.424Z" fill="url(#paint38_linear_1223_446)"/>
<path d="M141.225 6.55005C140.971 6.55005 140.76 6.50172 140.59 6.40505C140.42 6.30839 140.29 6.17505 140.2 6.00505C140.11 5.83172 140.06 5.63505 140.05 5.41505C140.046 5.35839 140.045 5.28672 140.045 5.20005C140.045 5.11005 140.046 5.03839 140.05 4.98505C140.06 4.76172 140.11 4.56505 140.2 4.39505C140.293 4.22505 140.425 4.09172 140.595 3.99505C140.765 3.89839 140.975 3.85005 141.225 3.85005C141.475 3.85005 141.685 3.89839 141.855 3.99505C142.025 4.09172 142.155 4.22505 142.245 4.39505C142.338 4.56505 142.39 4.76172 142.4 4.98505C142.403 5.03839 142.405 5.11005 142.405 5.20005C142.405 5.28672 142.403 5.35839 142.4 5.41505C142.39 5.63505 142.34 5.83172 142.25 6.00505C142.16 6.17505 142.03 6.30839 141.86 6.40505C141.69 6.50172 141.478 6.55005 141.225 6.55005ZM141.225 6.16505C141.431 6.16505 141.596 6.10005 141.72 5.97005C141.843 5.83672 141.91 5.64339 141.92 5.39005C141.923 5.34005 141.925 5.27672 141.925 5.20005C141.925 5.12339 141.923 5.06005 141.92 5.01005C141.91 4.75672 141.843 4.56505 141.72 4.43505C141.596 4.30172 141.431 4.23505 141.225 4.23505C141.018 4.23505 140.851 4.30172 140.725 4.43505C140.601 4.56505 140.536 4.75672 140.53 5.01005C140.526 5.06005 140.525 5.12339 140.525 5.20005C140.525 5.27672 140.526 5.34005 140.53 5.39005C140.536 5.64339 140.601 5.83672 140.725 5.97005C140.851 6.10005 141.018 6.16505 141.225 6.16505Z" fill="url(#paint39_linear_1223_446)"/>
<defs>
<linearGradient id="paint0_linear_1223_446" x1="0.587646" y1="8.45605" x2="40.1819" y2="-59.187" gradientUnits="userSpaceOnUse">
<stop stop-color="#22A93A"/>
<stop offset="1" stop-color="#60D669"/>
</linearGradient>
<linearGradient id="paint1_linear_1223_446" x1="0.587646" y1="8.45605" x2="40.1819" y2="-59.187" gradientUnits="userSpaceOnUse">
<stop stop-color="#22A93A"/>
<stop offset="1" stop-color="#60D669"/>
</linearGradient>
<linearGradient id="paint2_linear_1223_446" x1="0.587646" y1="8.45605" x2="40.1819" y2="-59.187" gradientUnits="userSpaceOnUse">
<stop stop-color="#22A93A"/>
<stop offset="1" stop-color="#60D669"/>
</linearGradient>
<linearGradient id="paint3_linear_1223_446" x1="0.587646" y1="8.45605" x2="40.1819" y2="-59.187" gradientUnits="userSpaceOnUse">
<stop stop-color="#22A93A"/>
<stop offset="1" stop-color="#60D669"/>
</linearGradient>
<linearGradient id="paint4_linear_1223_446" x1="0.587646" y1="8.45605" x2="40.1819" y2="-59.187" gradientUnits="userSpaceOnUse">
<stop stop-color="#22A93A"/>
<stop offset="1" stop-color="#60D669"/>
</linearGradient>
<linearGradient id="paint5_linear_1223_446" x1="0.587646" y1="8.45605" x2="40.1819" y2="-59.187" gradientUnits="userSpaceOnUse">
<stop stop-color="#22A93A"/>
<stop offset="1" stop-color="#60D669"/>
</linearGradient>
<linearGradient id="paint6_linear_1223_446" x1="0.587646" y1="8.45605" x2="40.1819" y2="-59.187" gradientUnits="userSpaceOnUse">
<stop stop-color="#22A93A"/>
<stop offset="1" stop-color="#60D669"/>
</linearGradient>
<linearGradient id="paint7_linear_1223_446" x1="0.587646" y1="8.45605" x2="40.1819" y2="-59.187" gradientUnits="userSpaceOnUse">
<stop stop-color="#22A93A"/>
<stop offset="1" stop-color="#60D669"/>
</linearGradient>
<linearGradient id="paint8_linear_1223_446" x1="0.587646" y1="8.45605" x2="40.1819" y2="-59.187" gradientUnits="userSpaceOnUse">
<stop stop-color="#22A93A"/>
<stop offset="1" stop-color="#60D669"/>
</linearGradient>
<linearGradient id="paint9_linear_1223_446" x1="0.587646" y1="8.45605" x2="40.1819" y2="-59.187" gradientUnits="userSpaceOnUse">
<stop stop-color="#22A93A"/>
<stop offset="1" stop-color="#60D669"/>
</linearGradient>
<linearGradient id="paint10_linear_1223_446" x1="0.587646" y1="8.45605" x2="40.1819" y2="-59.187" gradientUnits="userSpaceOnUse">
<stop stop-color="#22A93A"/>
<stop offset="1" stop-color="#60D669"/>
</linearGradient>
<linearGradient id="paint11_linear_1223_446" x1="0.587646" y1="8.45605" x2="40.1819" y2="-59.187" gradientUnits="userSpaceOnUse">
<stop stop-color="#22A93A"/>
<stop offset="1" stop-color="#60D669"/>
</linearGradient>
<linearGradient id="paint12_linear_1223_446" x1="0.587646" y1="8.45605" x2="40.1819" y2="-59.187" gradientUnits="userSpaceOnUse">
<stop stop-color="#22A93A"/>
<stop offset="1" stop-color="#60D669"/>
</linearGradient>
<linearGradient id="paint13_linear_1223_446" x1="0.587646" y1="8.45605" x2="40.1819" y2="-59.187" gradientUnits="userSpaceOnUse">
<stop stop-color="#22A93A"/>
<stop offset="1" stop-color="#60D669"/>
</linearGradient>
<linearGradient id="paint14_linear_1223_446" x1="0.587646" y1="8.45605" x2="40.1819" y2="-59.187" gradientUnits="userSpaceOnUse">
<stop stop-color="#22A93A"/>
<stop offset="1" stop-color="#60D669"/>
</linearGradient>
<linearGradient id="paint15_linear_1223_446" x1="0.587646" y1="8.45605" x2="40.1819" y2="-59.187" gradientUnits="userSpaceOnUse">
<stop stop-color="#22A93A"/>
<stop offset="1" stop-color="#60D669"/>
</linearGradient>
<linearGradient id="paint16_linear_1223_446" x1="0.587646" y1="8.45605" x2="40.1819" y2="-59.187" gradientUnits="userSpaceOnUse">
<stop stop-color="#22A93A"/>
<stop offset="1" stop-color="#60D669"/>
</linearGradient>
<linearGradient id="paint17_linear_1223_446" x1="0.587646" y1="8.45605" x2="40.1819" y2="-59.187" gradientUnits="userSpaceOnUse">
<stop stop-color="#22A93A"/>
<stop offset="1" stop-color="#60D669"/>
</linearGradient>
<linearGradient id="paint18_linear_1223_446" x1="0.587646" y1="8.45605" x2="40.1819" y2="-59.187" gradientUnits="userSpaceOnUse">
<stop stop-color="#22A93A"/>
<stop offset="1" stop-color="#60D669"/>
</linearGradient>
<linearGradient id="paint19_linear_1223_446" x1="0.587646" y1="8.45605" x2="40.1819" y2="-59.187" gradientUnits="userSpaceOnUse">
<stop stop-color="#22A93A"/>
<stop offset="1" stop-color="#60D669"/>
</linearGradient>
<linearGradient id="paint20_linear_1223_446" x1="0.587646" y1="8.45605" x2="40.1819" y2="-59.187" gradientUnits="userSpaceOnUse">
<stop stop-color="#22A93A"/>
<stop offset="1" stop-color="#60D669"/>
</linearGradient>
<linearGradient id="paint21_linear_1223_446" x1="0.587646" y1="8.45605" x2="40.1819" y2="-59.187" gradientUnits="userSpaceOnUse">
<stop stop-color="#22A93A"/>
<stop offset="1" stop-color="#60D669"/>
</linearGradient>
<linearGradient id="paint22_linear_1223_446" x1="0.587646" y1="8.45605" x2="40.1819" y2="-59.187" gradientUnits="userSpaceOnUse">
<stop stop-color="#22A93A"/>
<stop offset="1" stop-color="#60D669"/>
</linearGradient>
<linearGradient id="paint23_linear_1223_446" x1="0.587646" y1="8.45605" x2="40.1819" y2="-59.187" gradientUnits="userSpaceOnUse">
<stop stop-color="#22A93A"/>
<stop offset="1" stop-color="#60D669"/>
</linearGradient>
<linearGradient id="paint24_linear_1223_446" x1="0.587646" y1="8.45605" x2="40.1819" y2="-59.187" gradientUnits="userSpaceOnUse">
<stop stop-color="#22A93A"/>
<stop offset="1" stop-color="#60D669"/>
</linearGradient>
<linearGradient id="paint25_linear_1223_446" x1="0.587646" y1="8.45605" x2="40.1819" y2="-59.187" gradientUnits="userSpaceOnUse">
<stop stop-color="#22A93A"/>
<stop offset="1" stop-color="#60D669"/>
</linearGradient>
<linearGradient id="paint26_linear_1223_446" x1="0.587646" y1="8.45605" x2="40.1819" y2="-59.187" gradientUnits="userSpaceOnUse">
<stop stop-color="#22A93A"/>
<stop offset="1" stop-color="#60D669"/>
</linearGradient>
<linearGradient id="paint27_linear_1223_446" x1="0.587646" y1="8.45605" x2="40.1819" y2="-59.187" gradientUnits="userSpaceOnUse">
<stop stop-color="#22A93A"/>
<stop offset="1" stop-color="#60D669"/>
</linearGradient>
<linearGradient id="paint28_linear_1223_446" x1="0.587646" y1="8.45605" x2="40.1819" y2="-59.187" gradientUnits="userSpaceOnUse">
<stop stop-color="#22A93A"/>
<stop offset="1" stop-color="#60D669"/>
</linearGradient>
<linearGradient id="paint29_linear_1223_446" x1="0.587646" y1="8.45605" x2="40.1819" y2="-59.187" gradientUnits="userSpaceOnUse">
<stop stop-color="#22A93A"/>
<stop offset="1" stop-color="#60D669"/>
</linearGradient>
<linearGradient id="paint30_linear_1223_446" x1="0.587646" y1="8.45605" x2="40.1819" y2="-59.187" gradientUnits="userSpaceOnUse">
<stop stop-color="#22A93A"/>
<stop offset="1" stop-color="#60D669"/>
</linearGradient>
<linearGradient id="paint31_linear_1223_446" x1="0.587646" y1="8.45605" x2="40.1819" y2="-59.187" gradientUnits="userSpaceOnUse">
<stop stop-color="#22A93A"/>
<stop offset="1" stop-color="#60D669"/>
</linearGradient>
<linearGradient id="paint32_linear_1223_446" x1="0.587646" y1="8.45605" x2="40.1819" y2="-59.187" gradientUnits="userSpaceOnUse">
<stop stop-color="#22A93A"/>
<stop offset="1" stop-color="#60D669"/>
</linearGradient>
<linearGradient id="paint33_linear_1223_446" x1="0.587646" y1="8.45605" x2="40.1819" y2="-59.187" gradientUnits="userSpaceOnUse">
<stop stop-color="#22A93A"/>
<stop offset="1" stop-color="#60D669"/>
</linearGradient>
<linearGradient id="paint34_linear_1223_446" x1="0.587646" y1="8.45605" x2="40.1819" y2="-59.187" gradientUnits="userSpaceOnUse">
<stop stop-color="#22A93A"/>
<stop offset="1" stop-color="#60D669"/>
</linearGradient>
<linearGradient id="paint35_linear_1223_446" x1="0.587646" y1="8.45605" x2="40.1819" y2="-59.187" gradientUnits="userSpaceOnUse">
<stop stop-color="#22A93A"/>
<stop offset="1" stop-color="#60D669"/>
</linearGradient>
<linearGradient id="paint36_linear_1223_446" x1="0.587646" y1="8.45605" x2="40.1819" y2="-59.187" gradientUnits="userSpaceOnUse">
<stop stop-color="#22A93A"/>
<stop offset="1" stop-color="#60D669"/>
</linearGradient>
<linearGradient id="paint37_linear_1223_446" x1="0.587646" y1="8.45605" x2="40.1819" y2="-59.187" gradientUnits="userSpaceOnUse">
<stop stop-color="#22A93A"/>
<stop offset="1" stop-color="#60D669"/>
</linearGradient>
<linearGradient id="paint38_linear_1223_446" x1="0.587646" y1="8.45605" x2="40.1819" y2="-59.187" gradientUnits="userSpaceOnUse">
<stop stop-color="#22A93A"/>
<stop offset="1" stop-color="#60D669"/>
</linearGradient>
<linearGradient id="paint39_linear_1223_446" x1="0.587646" y1="8.45605" x2="40.1819" y2="-59.187" gradientUnits="userSpaceOnUse">
<stop stop-color="#22A93A"/>
<stop offset="1" stop-color="#60D669"/>
</linearGradient>
</defs>
</svg>
